<?xml version="1.0" encoding="utf-8"?>
<!-- Generator: Adobe Illustrator 26.5.0, SVG Export Plug-In . SVG Version: 6.00 Build 0)  -->
<svg version="1.1" id="Layer_1" xmlns="http://www.w3.org/2000/svg" xmlns:xlink="http://www.w3.org/1999/xlink" x="0px" y="0px"
	 viewBox="0 0 3300 2200" style="enable-background:new 0 0 3300 2200;" xml:space="preserve">
<style type="text/css">
	.st0{fill:#FFFFFF;}
	.st1{fill:none;stroke:#000000;stroke-width:0.5;}
	.st2{font-family:'Helvetica-Bold';}
	.st3{font-size:13px;}
	.st4{font-family:'Helvetica';}
	.st5{fill:none;stroke:#00AEEF;stroke-width:0.5;}
	.st6{fill:#27AAE1;}
	.st7{fill:none;stroke:#27AAE1;stroke-width:0.5;}
</style>
<g id="Notes">
	<rect id="artboard" class="st0" width="3300" height="2200"/>
	<line class="st1" x1="263" y1="292" x2="3036" y2="292"/>
	<text transform="matrix(1 0 0 1 263 322)" class="st2 st3">Weight/Scale Variations</text>
	<text transform="matrix(1 0 0 1 534.0633 322)" class="st4 st3">Ultralight</text>
	<text transform="matrix(1 0 0 1 843.7775 322)" class="st4 st3">Thin</text>
	<text transform="matrix(1 0 0 1 1139.035 322)" class="st4 st3">Light</text>
	<text transform="matrix(1 0 0 1 1427.0773 322)" class="st4 st3">Regular</text>
	<text transform="matrix(1 0 0 1 1723.4419 322)" class="st4 st3">Medium</text>
	<text transform="matrix(1 0 0 1 2016.1719 322)" class="st4 st3">Semibold</text>
	<text transform="matrix(1 0 0 1 2326.9705 322)" class="st4 st3">Bold</text>
	<text transform="matrix(1 0 0 1 2618.2659 322)" class="st4 st3">Heavy</text>
	<text transform="matrix(1 0 0 1 2917.5054 322)" class="st4 st3">Black</text>
	<line class="st1" x1="263" y1="1903" x2="3036" y2="1903"/>
	<g transform="matrix(1 0 0 1 263 1933)">
		<path d="M9.2,0.8c4.3,0,7.9-3.6,7.9-7.9c0-4.3-3.6-7.9-7.9-7.9c-4.3,0-7.9,3.6-7.9,7.9C1.4-2.7,5,0.8,9.2,0.8z M9.2-0.7
			c-3.5,0-6.4-2.8-6.4-6.4c0-3.6,2.8-6.4,6.4-6.4c3.6,0,6.4,2.8,6.4,6.4C15.6-3.5,12.8-0.7,9.2-0.7z M5.7-7.1c0,0.4,0.3,0.7,0.8,0.7
			h2.1v2.1c0,0.4,0.3,0.7,0.7,0.7c0.4,0,0.7-0.3,0.7-0.7v-2.1h2.1c0.4,0,0.7-0.3,0.7-0.7c0-0.4-0.3-0.7-0.7-0.7H10v-2.1
			c0-0.4-0.3-0.8-0.7-0.8c-0.4,0-0.7,0.3-0.7,0.8v2.1H6.4C6-7.8,5.7-7.5,5.7-7.1z"/>
	</g>
	<g transform="matrix(1 0 0 1 281.867 1933)">
		<path d="M11.7,2.9c5.4,0,10-4.5,10-10c0-5.4-4.5-10-10-10c-5.4,0-10,4.5-10,10C1.7-1.6,6.3,2.9,11.7,2.9z M11.7,1.2
			c-4.6,0-8.3-3.7-8.3-8.3c0-4.6,3.7-8.3,8.3-8.3c4.6,0,8.3,3.7,8.3,8.3C20-2.4,16.3,1.2,11.7,1.2z M7.2-7.1c0,0.5,0.3,0.8,0.8,0.8
			h2.9v2.9c0,0.5,0.3,0.8,0.8,0.8c0.5,0,0.8-0.3,0.8-0.8v-2.9h2.9c0.5,0,0.8-0.3,0.8-0.8c0-0.5-0.3-0.8-0.8-0.8h-2.9v-2.9
			c0-0.5-0.3-0.8-0.8-0.8c-0.5,0-0.8,0.3-0.8,0.8v2.9H8C7.5-7.9,7.2-7.5,7.2-7.1z"/>
	</g>
	<g transform="matrix(1 0 0 1 305.646 1933)">
		<path d="M15,5.7c7,0,12.7-5.8,12.7-12.7c0-7-5.8-12.7-12.7-12.7C8-19.8,2.3-14,2.3-7.1C2.3-0.1,8,5.7,15,5.7z M15,3.8
			C8.9,3.8,4.1-1,4.1-7.1c0-6,4.8-10.9,10.9-10.9c6,0,10.9,4.9,10.9,10.9C25.9-1,21,3.8,15,3.8z M9.2-7.1c0,0.5,0.4,0.9,0.9,0.9h3.9
			v4c0,0.5,0.4,0.9,0.9,0.9c0.5,0,0.9-0.4,0.9-0.9v-4h4c0.5,0,0.9-0.4,0.9-0.9c0-0.5-0.4-0.9-0.9-0.9h-4v-3.9c0-0.5-0.4-0.9-0.9-0.9
			c-0.5,0-0.9,0.4-0.9,0.9V-8h-3.9C9.6-8,9.2-7.6,9.2-7.1z"/>
	</g>
	<text transform="matrix(1 0 0 1 263 1953)" class="st2 st3">Design Variations</text>
	<text transform="matrix(1 0 0 1 263 1971)" class="st4 st3">Symbols are supported in up to nine weights and three scales.</text>
	<text transform="matrix(1 0 0 1 263 1989)" class="st4 st3">For optimal layout with text and other symbols, vertically align</text>
	<text transform="matrix(1 0 0 1 263 2007)" class="st4 st3">symbols with the adjacent text.</text>
	<line class="st5" x1="776" y1="1919" x2="776" y2="1933"/>
	<g transform="matrix(1 0 0 1 776 1933)">
		<path d="M3.3,0.2c0.5,0,0.8-0.2,1-0.7L5.5-4h5.8l1.3,3.4C12.7,0,13,0.2,13.5,0.2c0.5,0,0.8-0.3,0.8-0.8c0-0.2,0-0.3-0.1-0.5
			L9.7-13.4C9.4-14,9-14.3,8.4-14.3c-0.6,0-1,0.3-1.2,0.9L2.6-1.2C2.5-1,2.5-0.8,2.5-0.6C2.5-0.1,2.8,0.2,3.3,0.2z M6-5.5l2.4-6.6h0
			l2.4,6.6H6z"/>
	</g>
	<line class="st5" x1="793.2" y1="1919" x2="793.2" y2="1933"/>
	<text transform="matrix(1 0 0 1 776 1953)" class="st2 st3">Margins</text>
	<text transform="matrix(1 0 0 1 776 1971)" class="st4 st3">Leading and trailing margins on the left and right side of each symbol</text>
	<text transform="matrix(1 0 0 1 776 1989)" class="st4 st3">can be adjusted by modifying the x-location of the margin guidelines.</text>
	<text transform="matrix(1 0 0 1 776 2007)" class="st4 st3">Modifications are automatically applied proportionally to all</text>
	<text transform="matrix(1 0 0 1 776 2025)" class="st4 st3">scales and weights.</text>
	<g transform="matrix(1 0 0 1 1289 1933)">
		<path d="M2.8,1.9l1.7,1.7c0.9,0.9,1.8,0.8,2.8-0.2L18-8.4l-1-1L6.4,2.3c-0.4,0.4-0.7,0.5-1.2,0L4.1,1.1C3.6,0.7,3.7,0.3,4.1,0
			l11.5-10.8l-1-1L3-0.9C2.1,0,2,1,2.8,1.9z M9.3-16.3c-0.4,0.4-0.4,1-0.2,1.4c0.2,0.4,0.7,0.6,1.3,0.4c1.5-0.3,3-0.4,4.4,0.5
			l-0.6,1.5c-0.3,0.8-0.2,1.4,0.4,2l2.3,2.3c0.5,0.5,0.9,0.5,1.5,0.4L19.4-8l0.7,0.7l0,0.6c0,0.5,0.1,0.9,0.6,1.4l0.8,0.7
			c0.5,0.5,1.1,0.5,1.6,0l2.9-2.9c0.5-0.5,0.4-1.1,0-1.5L25-9.9c-0.5-0.5-0.8-0.6-1.3-0.6l-0.6,0l-0.6-0.6l0.2-1.1
			c0.1-0.6,0-1-0.6-1.6L19.9-16C16.6-19.3,12.1-19.2,9.3-16.3z M10.8-16c2.4-1.8,5.7-1.5,7.9,0.8l2.4,2.4c0.2,0.2,0.3,0.4,0.2,0.8
			L21-10.5l1.5,1.5l1-0.1c0.3,0,0.3,0,0.5,0.2l0.6,0.6l-2.4,2.4l-0.6-0.6c-0.2-0.2-0.2-0.3-0.2-0.5l0.1-1L20-9.5l-1.5,0.3
			c-0.3,0.1-0.5,0-0.7-0.2l-2-2c-0.3-0.2-0.3-0.4-0.1-0.8l0.9-2.1c-1.6-1.5-3.6-2.1-5.6-1.5C10.7-15.7,10.6-15.8,10.8-16z"/>
	</g>
	<text transform="matrix(1 0 0 1 1289 1953)" class="st2 st3">Exporting</text>
	<text transform="matrix(1 0 0 1 1289 1971)" class="st4 st3">Symbols should be outlined when exporting to ensure the</text>
	<text transform="matrix(1 0 0 1 1289 1989)" class="st4 st3">design is preserved when submitting to Xcode.</text>
	<text id="template-version" transform="matrix(1 0 0 1 2952.4141 1933)" class="st4 st3">Template v.4.0</text>
	<text transform="matrix(1 0 0 1 2865.4575 1951)" class="st4 st3">Requires Xcode 14 or greater</text>
	<text id="descriptive-name" transform="matrix(1 0 0 1 2911.7256 1969)" class="st4 st3">Generated from clock</text>
	<text transform="matrix(1 0 0 1 2912.4111 1987)" class="st4 st3">Typeset at 100 points</text>
	<text transform="matrix(1 0 0 1 263 726)" class="st4 st3">Small</text>
	<text transform="matrix(1 0 0 1 263 1156)" class="st4 st3">Medium</text>
	<text transform="matrix(1 0 0 1 263 1586)" class="st4 st3">Large</text>
</g>
<g id="Guides">
	<g id="H-reference" transform="matrix(1 0 0 1 339 696)">
		<path class="st6" d="M1,0h2.6l25.7-67.1H30v-3.3h-1.9L1,0z M11.7-24.5H47l-0.8-2.2H12.4L11.7-24.5z M55.1,0h2.6L30.6-70.5h-1.2
			v3.3L55.1,0z"/>
	</g>
	<line id="Baseline-S" class="st7" x1="263" y1="696" x2="3036" y2="696"/>
	<line id="Capline-S" class="st7" x1="263" y1="625.5" x2="3036" y2="625.5"/>
	<g id="H-reference_00000147183801885613522800000010289918370794499223_" transform="matrix(1 0 0 1 339 1126)">
		<path class="st6" d="M1,0h2.6l25.7-67.1H30v-3.3h-1.9L1,0z M11.7-24.5H47l-0.8-2.2H12.4L11.7-24.5z M55.1,0h2.6L30.6-70.5h-1.2
			v3.3L55.1,0z"/>
	</g>
	<line id="Baseline-M" class="st7" x1="263" y1="1126" x2="3036" y2="1126"/>
	<line id="Capline-M" class="st7" x1="263" y1="1055.5" x2="3036" y2="1055.5"/>
	<g id="H-reference_00000001643517707869436490000015290918480409531037_" transform="matrix(1 0 0 1 339 1556)">
		<path class="st6" d="M1,0h2.6l25.7-67.1H30v-3.3h-1.9L1,0z M11.7-24.5H47l-0.8-2.2H12.4L11.7-24.5z M55.1,0h2.6L30.6-70.5h-1.2
			v3.3L55.1,0z"/>
	</g>
	<line id="Baseline-L" class="st7" x1="263" y1="1556" x2="3036" y2="1556"/>
	<line id="Capline-L" class="st7" x1="263" y1="1485.5" x2="3036" y2="1485.5"/>
	<line id="left-margin-Regular-M" class="st5" x1="1391.3" y1="1030.8" x2="1391.3" y2="1150.1"/>
	<line id="right-margin-Regular-M" class="st5" x1="1508.4" y1="1030.8" x2="1508.4" y2="1150.1"/>
</g>
<g id="Symbols">
	<g id="Black-L" transform="matrix(1 0 0 1 2854.19 1556)">
		<path d="M81.5-124c6.1,0,12.2,0,18.2,0c3.6,0,5.4,1.8,5.4,5.4c0,2.9,0.1,5.9,0,8.8c-0.1,2.9-2,4.8-4.9,4.8c-2.4,0-4.9,0.1-7.3,0
			c-1.3,0-1.9,0.4-1.9,1.8c0.1,2.2,0.1,4.5,0,6.7c0,1.2,0.5,1.7,1.7,1.9c9.7,1.8,18.5,5.7,26.3,11.7c1.1,0.8,1.7,0.7,2.6-0.2
			c1.5-1.6,3-3.1,4.6-4.6c2.2-2,4.8-2,6.9,0c2.2,2.1,4.3,4.2,6.4,6.4c2.2,2.3,2.1,4.9-0.1,7.2c-1.6,1.7-3.3,3.5-5,5
			c-1.1,1-1.1,1.7-0.3,3c17.8,29.5,8.1,67.4-21.7,84.8c-37.7,22.1-86.5-2.2-91.6-45.5c-1.7-14,1.1-27.1,8.4-39.2
			c0.9-1.4,0.7-2.2-0.5-3.3c-1.8-1.6-3.4-3.3-5-5c-2-2.2-2-4.8,0-6.9c2.1-2.2,4.3-4.4,6.5-6.5c2.2-2,4.7-2,6.9,0.1
			c1.6,1.5,3.2,3.1,4.8,4.7c0.7,0.7,1.2,0.9,2.1,0.2c8-6.2,16.9-10.2,26.9-12c0.9-0.2,1.3-0.6,1.3-1.5c0-2.4,0-4.9,0-7.3
			c0-1.1-0.4-1.5-1.5-1.4c-2.5,0.1-5,0.1-7.5,0c-3.1-0.1-4.9-1.9-5-5c0-3,0-6,0-9c0-3.2,1.9-5,5.1-5C69.2-124,75.3-124,81.5-124
			L81.5-124z M133.3-34.4c-0.1-28.6-23.4-51.8-52-51.7c-28.4,0-51.8,23.5-51.6,51.9C30-3.6,55.5,18,82.8,17.4
			C110.1,16.9,133.3-6.5,133.3-34.4L133.3-34.4z"/>
		<path d="M77.1-59.4c2,0.1,5.1-0.2,8.2,0.2c2.2,0.3,4.4,0.7,6.3,2.2c3.2,2.5,4.4,6.4,3,10.3c-1.9,5.4-3.9,10.8-5.9,16.2
			c-0.5,1.4-0.5,1.4,0.8,2.2c2.7,1.7,5.3,3.5,8,5.1c2.9,1.7,3.9,4.3,3.7,7.5c-0.3,5-0.1,10-0.2,15c0,1.5,0.1,3-0.2,4.4
			c-0.4,1.9-1.9,3.8-4.1,4.2c-2.4,0.3-4.4-0.5-5.6-2.5c-0.5-0.9-0.6-1.8-0.6-2.8c0-5.4,0-10.9,0.3-16.3c0.1-1.2-0.4-1.6-1.4-2
			c-4.8-1.9-9.6-3.6-14.1-6c-3-1.6-4.7-4.4-5.2-7.8c-0.4-2.4,0.2-4.7,1.1-6.9c1.8-4.7,3.6-9.5,5.4-14.2c0.4-1,0.3-1.2-0.7-1.2
			c-1.9,0-3.9,0-5.8-0.2c-0.7-0.1-1.2,0.2-1.6,0.8c-2.1,2.8-4.3,5.6-6.4,8.5c-0.3,0.4-0.6,0.9-0.9,1.3c-1.5,1.8-4,1.5-5.2,0.5
			c-1.7-1.4-2.1-3.7-0.7-5.4c3-3.7,6-7.3,9-10.9c1.2-1.4,2.9-2.1,4.8-2.1C71.3-59.4,73.7-59.4,77.1-59.4L77.1-59.4z"/>
		<path d="M47.6-6.4c-3.1,0-5.4-2.1-5.6-4.8c-0.2-3,1.7-5.3,4.7-5.6c2.5-0.2,4.9-0.3,7.4-0.4c2.3-0.1,4.5-0.3,6.8-0.3
			c0.8,0,1.2-0.4,1.5-1c1.2-2.2,2.5-4.4,3.8-6.5c0.1-0.2,0.2-0.6,0.5-0.6c0.3,0,0.4,0.3,0.5,0.6c1.4,3,3.6,5.2,6.6,6.6
			c0.7,0.3,1,0.8,0.4,1.5c-1.8,2.6-3.6,5.2-5.7,7.6c-1.1,1.3-2.7,2-4.4,2C59.9-7,55.5-6.8,51-6.6C49.8-6.5,48.6-6.5,47.6-6.4
			L47.6-6.4z"/>
		<path d="M85.1-69.6c0-5.1,3.9-9.2,9-9.2c5.4,0,9.2,3.9,9.3,9.2c0.1,5-4.1,9.2-9.1,9.2C89.1-60.4,85.1-64.4,85.1-69.6L85.1-69.6z"
			/>
		<path d="M104-32.8c-1.9,0-3.2-0.5-4.4-1.3c-1.3-0.9-2.5-1.9-3.8-2.8c-0.7-0.5-0.9-0.9-0.6-1.7c0.9-2.3,1.6-4.5,2.4-6.8
			c0.4-1.1,0.4-1,1.4-0.3c1.6,1.3,3,2.7,4.5,4c0.5,0.5,1,0.6,1.7,0.3c3.3-1.2,6.6-2.3,10-3.4c2.2-0.8,4-0.4,5.1,1
			c1.5,1.9,1.1,5.2-1.9,6.2c-3.9,1.3-7.8,2.7-11.7,4C105.7-33.3,104.6-32.8,104-32.8L104-32.8z"/>
	</g>
	<g id="Heavy-L" transform="matrix(1 0 0 1 2558.42 1556)">
		<path d="M76.3-124c6.1,0,12.2,0,18.2,0c3.6,0,5.4,1.8,5.4,5.4c0,2.9,0.1,5.9,0,8.8c-0.1,2.9-2,4.8-4.9,4.8c-2.4,0-4.9,0.1-7.3,0
			c-1.3,0-1.9,0.4-1.9,1.8c0.1,2.2,0.1,4.5,0,6.7c0,1.2,0.5,1.7,1.7,1.9c9.7,1.8,18.5,5.7,26.3,11.7c1.1,0.8,1.7,0.7,2.6-0.2
			c1.5-1.6,3-3.1,4.6-4.6c2.2-2,4.8-2,6.9,0c2.2,2.1,4.3,4.2,6.4,6.4c2.2,2.3,2.1,4.9-0.1,7.2c-1.6,1.7-3.3,3.5-5,5
			c-1.1,1-1.1,1.7-0.3,3c17.8,29.5,8.1,67.4-21.7,84.8c-37.7,22.1-86.5-2.2-91.6-45.5c-1.7-14,1.1-27.1,8.4-39.2
			c0.9-1.4,0.7-2.2-0.5-3.3c-1.8-1.6-3.4-3.3-5-5c-2-2.2-2-4.8,0-6.9c2.1-2.2,4.3-4.4,6.5-6.5c2.2-2,4.7-2,6.9,0.1
			c1.6,1.5,3.2,3.1,4.8,4.7c0.7,0.7,1.2,0.9,2.1,0.2c8-6.2,16.9-10.2,26.9-12c0.9-0.2,1.3-0.6,1.3-1.5c0-2.4,0-4.9,0-7.3
			c0-1.1-0.4-1.5-1.5-1.4c-2.5,0.1-5,0.1-7.5,0c-3.1-0.1-4.9-1.9-5-5c0-3,0-6,0-9c0-3.2,1.9-5,5.1-5C64-124,70.2-124,76.3-124
			L76.3-124z M128.1-34.4c-0.1-28.6-23.4-51.8-52-51.7c-28.4,0-51.8,23.5-51.6,51.9C24.8-3.6,50.3,18,77.7,17.4
			C105,16.9,128.2-6.5,128.1-34.4L128.1-34.4z"/>
		<path d="M71.9-59.4c2,0.1,5.1-0.2,8.2,0.2c2.2,0.3,4.4,0.7,6.3,2.2c3.2,2.5,4.4,6.4,3,10.3c-1.9,5.4-3.9,10.8-5.9,16.2
			c-0.5,1.4-0.5,1.4,0.8,2.2c2.7,1.7,5.3,3.5,8,5.1c2.9,1.7,3.9,4.3,3.7,7.5c-0.3,5-0.1,10-0.2,15c0,1.5,0.1,3-0.2,4.4
			c-0.4,1.9-1.9,3.8-4.1,4.2c-2.4,0.3-4.4-0.5-5.6-2.5c-0.5-0.9-0.6-1.8-0.6-2.8c0-5.4,0-10.9,0.3-16.3c0.1-1.2-0.4-1.6-1.4-2
			c-4.8-1.9-9.6-3.6-14.1-6c-3-1.6-4.7-4.4-5.2-7.8c-0.4-2.4,0.2-4.7,1.1-6.9c1.8-4.7,3.6-9.5,5.4-14.2c0.4-1,0.3-1.2-0.7-1.2
			c-1.9,0-3.9,0-5.8-0.2c-0.7-0.1-1.2,0.2-1.6,0.8c-2.1,2.8-4.3,5.6-6.4,8.5c-0.3,0.4-0.6,0.9-0.9,1.3c-1.5,1.8-4,1.5-5.2,0.5
			c-1.7-1.4-2.1-3.7-0.7-5.4c3-3.7,6-7.3,9-10.9c1.2-1.4,2.9-2.1,4.8-2.1C66.1-59.4,68.5-59.4,71.9-59.4L71.9-59.4z"/>
		<path d="M42.5-6.4c-3.1,0-5.4-2.1-5.6-4.8c-0.2-3,1.7-5.3,4.7-5.6c2.5-0.2,4.9-0.3,7.4-0.4c2.3-0.1,4.5-0.3,6.8-0.3
			c0.8,0,1.2-0.4,1.5-1c1.2-2.2,2.5-4.4,3.8-6.5c0.1-0.2,0.2-0.6,0.5-0.6c0.3,0,0.4,0.3,0.5,0.6c1.4,3,3.6,5.2,6.6,6.6
			c0.7,0.3,1,0.8,0.4,1.5c-1.8,2.6-3.6,5.2-5.7,7.6c-1.1,1.3-2.7,2-4.4,2C54.8-7,50.3-6.8,45.9-6.6C44.7-6.5,43.5-6.5,42.5-6.4
			L42.5-6.4z"/>
		<path d="M79.9-69.6c0-5.1,3.9-9.2,9-9.2c5.4,0,9.2,3.9,9.3,9.2c0.1,5-4.1,9.2-9.1,9.2C83.9-60.4,80-64.4,79.9-69.6L79.9-69.6z"/>
		<path d="M98.9-32.8c-1.9,0-3.2-0.5-4.4-1.3c-1.3-0.9-2.5-1.9-3.8-2.8c-0.7-0.5-0.9-0.9-0.6-1.7c0.9-2.3,1.6-4.5,2.4-6.8
			c0.4-1.1,0.4-1,1.4-0.3c1.6,1.3,3,2.7,4.5,4c0.5,0.5,1,0.6,1.7,0.3c3.3-1.2,6.6-2.3,10-3.4c2.2-0.8,4-0.4,5.1,1
			c1.5,1.9,1.1,5.2-1.9,6.2c-3.9,1.3-7.8,2.7-11.7,4C100.5-33.3,99.5-32.8,98.9-32.8L98.9-32.8z"/>
	</g>
	<g id="Bold-L" transform="matrix(1 0 0 1 2262.89 1556)">
		<path d="M76.4-124c6.1,0,12.2,0,18.2,0c3.6,0,5.4,1.8,5.4,5.4c0,2.9,0.1,5.9,0,8.8c-0.1,2.9-2,4.8-4.9,4.8c-2.4,0-4.9,0.1-7.3,0
			c-1.3,0-1.9,0.4-1.9,1.8c0.1,2.2,0.1,4.5,0,6.7c0,1.2,0.5,1.7,1.7,1.9c9.7,1.8,18.5,5.7,26.3,11.7c1.1,0.8,1.7,0.7,2.6-0.2
			c1.5-1.6,3-3.1,4.6-4.6c2.2-2,4.8-2,6.9,0c2.2,2.1,4.3,4.2,6.4,6.4c2.2,2.3,2.1,4.9-0.1,7.2c-1.6,1.7-3.3,3.5-5,5
			c-1.1,1-1.1,1.7-0.3,3c17.8,29.5,8.1,67.4-21.7,84.8c-37.7,22.1-86.5-2.2-91.6-45.5c-1.7-14,1.1-27.1,8.4-39.2
			c0.9-1.4,0.7-2.2-0.5-3.3c-1.8-1.6-3.4-3.3-5-5c-2-2.2-2-4.8,0-6.9c2.1-2.2,4.3-4.4,6.5-6.5c2.2-2,4.7-2,6.9,0.1
			c1.6,1.5,3.2,3.1,4.8,4.7c0.7,0.7,1.2,0.9,2.1,0.2c8-6.2,16.9-10.2,26.9-12c0.9-0.2,1.3-0.6,1.3-1.5c0-2.4,0-4.9,0-7.3
			c0-1.1-0.4-1.5-1.5-1.4c-2.5,0.1-5,0.1-7.5,0c-3.1-0.1-4.9-1.9-5-5c0-3,0-6,0-9c0-3.2,1.9-5,5.1-5C64.1-124,70.3-124,76.4-124
			L76.4-124z M128.2-34.4c-0.1-28.6-23.4-51.8-52-51.7c-28.4,0-51.8,23.5-51.6,51.9C24.9-3.6,50.4,18,77.8,17.4
			C105.1,16.9,128.3-6.5,128.2-34.4L128.2-34.4z"/>
		<path d="M72-59.4c2,0.1,5.1-0.2,8.2,0.2c2.2,0.3,4.4,0.7,6.3,2.2c3.2,2.5,4.4,6.4,3,10.3c-1.9,5.4-3.9,10.8-5.9,16.2
			c-0.5,1.4-0.5,1.4,0.8,2.2c2.7,1.7,5.3,3.5,8,5.1c2.9,1.7,3.9,4.3,3.7,7.5c-0.3,5-0.1,10-0.2,15c0,1.5,0.1,3-0.2,4.4
			c-0.4,1.9-1.9,3.8-4.1,4.2c-2.4,0.3-4.4-0.5-5.6-2.5c-0.5-0.9-0.6-1.8-0.6-2.8c0-5.4,0-10.9,0.3-16.3c0.1-1.2-0.4-1.6-1.4-2
			c-4.8-1.9-9.6-3.6-14.1-6c-3-1.6-4.7-4.4-5.2-7.8c-0.4-2.4,0.2-4.7,1.1-6.9c1.8-4.7,3.6-9.5,5.4-14.2c0.4-1,0.3-1.2-0.7-1.2
			c-1.9,0-3.9,0-5.8-0.2c-0.7-0.1-1.2,0.2-1.6,0.8c-2.1,2.8-4.3,5.6-6.4,8.5c-0.3,0.4-0.6,0.9-0.9,1.3c-1.5,1.8-4,1.5-5.2,0.5
			c-1.7-1.4-2.1-3.7-0.7-5.4c3-3.7,6-7.3,9-10.9c1.2-1.4,2.9-2.1,4.8-2.1C66.2-59.4,68.6-59.4,72-59.4L72-59.4z"/>
		<path d="M42.6-6.4c-3.1,0-5.4-2.1-5.6-4.8c-0.2-3,1.7-5.3,4.7-5.6c2.5-0.2,4.9-0.3,7.4-0.4c2.3-0.1,4.5-0.3,6.8-0.3
			c0.8,0,1.2-0.4,1.5-1c1.2-2.2,2.5-4.4,3.8-6.5c0.1-0.2,0.2-0.6,0.5-0.6c0.3,0,0.4,0.3,0.5,0.6c1.4,3,3.6,5.2,6.6,6.6
			c0.7,0.3,1,0.8,0.4,1.5c-1.8,2.6-3.6,5.2-5.7,7.6c-1.1,1.3-2.7,2-4.4,2C54.9-7,50.4-6.8,46-6.6C44.8-6.5,43.6-6.5,42.6-6.4
			L42.6-6.4z"/>
		<path d="M80-69.6c0-5.1,3.9-9.2,9-9.2c5.4,0,9.2,3.9,9.3,9.2c0.1,5-4.1,9.2-9.1,9.2C84-60.4,80.1-64.4,80-69.6L80-69.6z"/>
		<path d="M99-32.8c-1.9,0-3.2-0.5-4.4-1.3c-1.3-0.9-2.5-1.9-3.8-2.8c-0.7-0.5-0.9-0.9-0.6-1.7c0.9-2.3,1.6-4.5,2.4-6.8
			c0.4-1.1,0.4-1,1.4-0.3c1.6,1.3,3,2.7,4.5,4c0.5,0.5,1,0.6,1.7,0.3c3.3-1.2,6.6-2.3,10-3.4c2.2-0.8,4-0.4,5.1,1
			c1.5,1.9,1.1,5.2-1.9,6.2c-3.9,1.3-7.8,2.7-11.7,4C100.6-33.3,99.6-32.8,99-32.8L99-32.8z"/>
	</g>
	<g id="Semibold-L" transform="matrix(1 0 0 1 1966.99 1556)">
		<path d="M74.8-123c6.1,0,12.2,0,18.2,0c3.6,0,5.4,1.8,5.4,5.4c0,2.9,0.1,5.9,0,8.8c-0.1,2.9-2,4.8-4.9,4.8c-2.4,0-4.9,0.1-7.3,0
			c-1.3,0-1.9,0.4-1.9,1.8c0.1,2.2,0.1,4.5,0,6.7c0,1.2,0.5,1.7,1.7,1.9c9.7,1.8,18.5,5.7,26.3,11.7c1.1,0.8,1.7,0.7,2.6-0.2
			c1.5-1.6,3-3.1,4.6-4.6c2.2-2,4.8-2,6.9,0c2.2,2.1,4.3,4.2,6.4,6.4c2.2,2.3,2.1,4.9-0.1,7.2c-1.6,1.7-3.3,3.5-5,5
			c-1.1,1-1.1,1.7-0.3,3c17.8,29.5,8.1,67.4-21.7,84.8C67.8,41.8,19,17.6,13.9-25.8c-1.7-14,1.1-27.1,8.4-39.2
			c0.9-1.4,0.7-2.2-0.5-3.3c-1.8-1.6-3.4-3.3-5-5c-2-2.2-2-4.8,0-6.9c2.1-2.2,4.3-4.4,6.5-6.5c2.2-2,4.7-2,6.9,0.1
			c1.6,1.5,3.2,3.1,4.8,4.7c0.7,0.7,1.2,0.9,2.1,0.2c8-6.2,16.9-10.2,26.9-12c0.9-0.2,1.3-0.6,1.3-1.5c0-2.4,0-4.9,0-7.3
			c0-1.1-0.4-1.5-1.5-1.4c-2.5,0.1-5,0.1-7.5,0c-3.1-0.1-4.9-1.9-5-5c0-3,0-6,0-9c0-3.2,1.9-5,5.1-5C62.5-123,68.6-123,74.8-123
			L74.8-123z M126.6-33.4c-0.1-28.6-23.4-51.8-52-51.7c-28.4,0-51.8,23.5-51.6,51.9C23.3-2.6,48.8,19,76.1,18.4
			C103.4,17.9,126.6-5.5,126.6-33.4L126.6-33.4z"/>
		<path d="M70.4-58.4c2,0.1,5.1-0.2,8.2,0.2c2.2,0.3,4.4,0.7,6.3,2.2c3.2,2.5,4.4,6.4,3,10.3C85.9-40.4,83.9-35,82-29.6
			c-0.5,1.4-0.5,1.4,0.8,2.2c2.7,1.7,5.3,3.5,8,5.1c2.9,1.7,3.9,4.3,3.7,7.5c-0.3,5-0.1,10-0.2,15c0,1.5,0.1,3-0.2,4.4
			c-0.4,1.9-1.9,3.8-4.1,4.2c-2.4,0.3-4.4-0.5-5.6-2.5c-0.5-0.9-0.6-1.8-0.6-2.8c0-5.4,0-10.9,0.3-16.3c0.1-1.2-0.4-1.6-1.4-2
			c-4.8-1.9-9.6-3.6-14.1-6c-3-1.6-4.7-4.4-5.2-7.8c-0.4-2.4,0.2-4.7,1.1-6.9c1.8-4.7,3.6-9.5,5.4-14.2c0.4-1,0.3-1.2-0.7-1.2
			c-1.9,0-3.9,0-5.8-0.2c-0.7-0.1-1.2,0.2-1.6,0.8c-2.1,2.8-4.3,5.6-6.4,8.5c-0.3,0.4-0.6,0.9-0.9,1.3c-1.5,1.8-4,1.5-5.2,0.5
			c-1.7-1.4-2.1-3.7-0.7-5.4c3-3.7,6-7.3,9-10.9c1.2-1.4,2.9-2.1,4.8-2.1C64.6-58.4,67-58.4,70.4-58.4L70.4-58.4z"/>
		<path d="M40.9-5.4c-3.1,0-5.4-2.1-5.6-4.8c-0.2-3,1.7-5.3,4.7-5.6c2.5-0.2,4.9-0.3,7.4-0.4c2.3-0.1,4.5-0.3,6.8-0.3
			c0.8,0,1.2-0.4,1.5-1c1.2-2.2,2.5-4.4,3.8-6.5c0.1-0.2,0.2-0.6,0.5-0.6c0.3,0,0.4,0.3,0.5,0.6c1.4,3,3.6,5.2,6.6,6.6
			c0.7,0.3,1,0.8,0.4,1.5c-1.8,2.6-3.6,5.2-5.7,7.6c-1.1,1.3-2.7,2-4.4,2C53.2-6,48.8-5.8,44.3-5.6C43.1-5.5,41.9-5.5,40.9-5.4
			L40.9-5.4z"/>
		<path d="M78.4-68.6c0-5.1,3.9-9.2,9-9.2c5.4,0,9.2,3.9,9.3,9.2c0.1,5-4.1,9.2-9.1,9.2C82.4-59.4,78.4-63.4,78.4-68.6L78.4-68.6z"
			/>
		<path d="M97.3-31.8c-1.9,0-3.2-0.5-4.4-1.3c-1.3-0.9-2.5-1.9-3.8-2.8c-0.7-0.5-0.9-0.9-0.6-1.7c0.9-2.3,1.6-4.5,2.4-6.8
			c0.4-1.1,0.4-1,1.4-0.3c1.6,1.3,3,2.7,4.5,4c0.5,0.5,1,0.6,1.7,0.3c3.3-1.2,6.6-2.3,10-3.4c2.2-0.8,4-0.4,5.1,1
			c1.5,1.9,1.1,5.2-1.9,6.2c-3.9,1.3-7.8,2.7-11.7,4C99-32.3,97.9-31.8,97.3-31.8L97.3-31.8z"/>
	</g>
	<g id="Medium-L" transform="matrix(1 0 0 1 1670.9 1556)">
		<path d="M75.6-124c6.1,0,12.2,0,18.2,0c3.6,0,5.4,1.8,5.4,5.4c0,2.9,0.1,5.9,0,8.8c-0.1,2.9-2,4.8-4.9,4.8c-2.4,0-4.9,0.1-7.3,0
			c-1.3,0-1.9,0.4-1.9,1.8c0.1,2.2,0.1,4.5,0,6.7c0,1.2,0.5,1.7,1.7,1.9c9.7,1.8,18.5,5.7,26.3,11.7c1.1,0.8,1.7,0.7,2.6-0.2
			c1.5-1.6,3-3.1,4.6-4.6c2.2-2,4.8-2,6.9,0c2.2,2.1,4.3,4.2,6.4,6.4c2.2,2.3,2.1,4.9-0.1,7.2c-1.6,1.7-3.3,3.5-5,5
			c-1.1,1-1.1,1.7-0.3,3c17.8,29.5,8.1,67.4-21.7,84.8c-37.7,22.1-86.5-2.2-91.6-45.5c-1.7-14,1.1-27.1,8.4-39.2
			c0.9-1.4,0.7-2.2-0.5-3.3c-1.8-1.6-3.4-3.3-5-5c-2-2.2-2-4.8,0-6.9c2.1-2.2,4.3-4.4,6.5-6.5c2.2-2,4.7-2,6.9,0.1
			c1.6,1.5,3.2,3.1,4.8,4.7c0.7,0.7,1.2,0.9,2.1,0.2c8-6.2,16.9-10.2,26.9-12c0.9-0.2,1.3-0.6,1.3-1.5c0-2.4,0-4.9,0-7.3
			c0-1.1-0.4-1.5-1.5-1.4c-2.5,0.1-5,0.1-7.5,0c-3.1-0.1-4.9-1.9-5-5c0-3,0-6,0-9c0-3.2,1.9-5,5.1-5C63.3-124,69.5-124,75.6-124
			L75.6-124z M127.4-34.4c-0.1-28.6-23.4-51.8-52-51.7c-28.4,0-51.8,23.5-51.6,51.9C24.2-3.6,49.6,18,77,17.4
			C104.3,16.9,127.5-6.5,127.4-34.4L127.4-34.4z"/>
		<path d="M71.2-59.4c2,0.1,5.1-0.2,8.2,0.2c2.2,0.3,4.4,0.7,6.3,2.2c3.2,2.5,4.4,6.4,3,10.3c-1.9,5.4-3.9,10.8-5.9,16.2
			c-0.5,1.4-0.5,1.4,0.8,2.2c2.7,1.7,5.3,3.5,8,5.1c2.9,1.7,3.9,4.3,3.7,7.5c-0.3,5-0.1,10-0.2,15c0,1.5,0.1,3-0.2,4.4
			c-0.4,1.9-1.9,3.8-4.1,4.2c-2.4,0.3-4.4-0.5-5.6-2.5c-0.5-0.9-0.6-1.8-0.6-2.8c0-5.4,0-10.9,0.3-16.3c0.1-1.2-0.4-1.6-1.4-2
			c-4.8-1.9-9.6-3.6-14.1-6c-3-1.6-4.7-4.4-5.2-7.8c-0.4-2.4,0.2-4.7,1.1-6.9c1.8-4.7,3.6-9.5,5.4-14.2c0.4-1,0.3-1.2-0.7-1.2
			c-1.9,0-3.9,0-5.8-0.2c-0.7-0.1-1.2,0.2-1.6,0.8c-2.1,2.8-4.3,5.6-6.4,8.5c-0.3,0.4-0.6,0.9-0.9,1.3c-1.5,1.8-4,1.5-5.2,0.5
			c-1.7-1.4-2.1-3.7-0.7-5.4c3-3.7,6-7.3,9-10.9c1.2-1.4,2.9-2.1,4.8-2.1C65.5-59.4,67.8-59.4,71.2-59.4L71.2-59.4z"/>
		<path d="M41.8-6.4c-3.1,0-5.4-2.1-5.6-4.8c-0.2-3,1.7-5.3,4.7-5.6c2.5-0.2,4.9-0.3,7.4-0.4c2.3-0.1,4.5-0.3,6.8-0.3
			c0.8,0,1.2-0.4,1.5-1c1.2-2.2,2.5-4.4,3.8-6.5c0.1-0.2,0.2-0.6,0.5-0.6c0.3,0,0.4,0.3,0.5,0.6c1.4,3,3.6,5.2,6.6,6.6
			c0.7,0.3,1,0.8,0.4,1.5c-1.8,2.6-3.6,5.2-5.7,7.6c-1.1,1.3-2.7,2-4.4,2C54.1-7,49.7-6.8,45.2-6.6C44-6.5,42.8-6.5,41.8-6.4
			L41.8-6.4z"/>
		<path d="M79.3-69.6c0-5.1,3.9-9.2,9-9.2c5.4,0,9.2,3.9,9.3,9.2c0.1,5-4.1,9.2-9.1,9.2C83.3-60.4,79.3-64.4,79.3-69.6L79.3-69.6z"
			/>
		<path d="M98.2-32.8c-1.9,0-3.2-0.5-4.4-1.3c-1.3-0.9-2.5-1.9-3.8-2.8c-0.7-0.5-0.9-0.9-0.6-1.7c0.9-2.3,1.6-4.5,2.4-6.8
			c0.4-1.1,0.4-1,1.4-0.3c1.6,1.3,3,2.7,4.5,4c0.5,0.5,1,0.6,1.7,0.3c3.3-1.2,6.6-2.3,10-3.4c2.2-0.8,4-0.4,5.1,1
			c1.5,1.9,1.1,5.2-1.9,6.2c-3.9,1.3-7.8,2.7-11.7,4C99.8-33.3,98.8-32.8,98.2-32.8L98.2-32.8z"/>
	</g>
	<g id="Regular-L" transform="matrix(1 0 0 1 1374.99 1556)">
		<path d="M74.8-125.1c6.1,0,12.2,0,18.2,0c3.6,0,5.4,1.8,5.4,5.4c0,2.9,0.1,5.9,0,8.8c-0.1,2.9-2,4.8-4.9,4.8c-2.4,0-4.9,0.1-7.3,0
			c-1.3,0-1.9,0.4-1.9,1.8c0.1,2.2,0.1,4.5,0,6.7c0,1.2,0.5,1.7,1.7,1.9c9.7,1.8,18.5,5.7,26.3,11.7c1.1,0.8,1.7,0.7,2.6-0.2
			c1.5-1.6,3-3.1,4.6-4.6c2.2-2,4.8-2,6.9,0c2.2,2.1,4.3,4.2,6.4,6.4c2.2,2.3,2.1,4.9-0.1,7.2c-1.6,1.7-3.3,3.5-5,5
			c-1.1,1-1.1,1.7-0.3,3c17.8,29.5,8.1,67.4-21.7,84.8C67.9,39.7,19.1,15.5,14-27.9C12.3-41.9,15-55,22.3-67
			c0.9-1.4,0.7-2.2-0.5-3.3c-1.8-1.6-3.4-3.3-5-5c-2-2.2-2-4.8,0-6.9c2.1-2.2,4.3-4.4,6.5-6.5c2.2-2,4.7-2,6.9,0.1
			c1.6,1.5,3.2,3.1,4.8,4.7c0.7,0.7,1.2,0.9,2.1,0.2C45.1-90,54-94,64-95.8c0.9-0.2,1.3-0.6,1.3-1.5c0-2.4,0-4.9,0-7.3
			c0-1.1-0.4-1.5-1.5-1.4c-2.5,0.1-5,0.1-7.5,0c-3.1-0.1-4.9-1.9-5-5c0-3,0-6,0-9c0-3.2,1.9-5,5.1-5
			C62.5-125.2,68.7-125.1,74.8-125.1L74.8-125.1z M126.6-35.5c-0.1-28.6-23.4-51.8-52-51.7c-28.4,0-51.8,23.5-51.6,51.9
			c0.3,30.6,25.7,52.2,53.1,51.6C103.5,15.7,126.7-7.6,126.6-35.5L126.6-35.5z"/>
		<path d="M70.4-60.5c2,0.1,5.1-0.2,8.2,0.2c2.2,0.3,4.4,0.7,6.3,2.2c3.2,2.5,4.4,6.4,3,10.3C86-42.5,84-37.1,82-31.7
			c-0.5,1.4-0.5,1.4,0.8,2.2c2.7,1.7,5.3,3.5,8,5.1c2.9,1.7,3.9,4.3,3.7,7.5c-0.3,5-0.1,10-0.2,15c0,1.5,0.1,3-0.2,4.4
			c-0.4,1.9-1.9,3.8-4.1,4.2c-2.4,0.3-4.4-0.5-5.6-2.5c-0.5-0.9-0.6-1.8-0.6-2.8c0-5.4,0-10.9,0.3-16.3c0.1-1.2-0.4-1.6-1.4-2
			c-4.8-1.9-9.6-3.6-14.1-6c-3-1.6-4.7-4.4-5.2-7.8c-0.4-2.4,0.2-4.7,1.1-6.9c1.8-4.7,3.6-9.5,5.4-14.2c0.4-1,0.3-1.2-0.7-1.2
			c-1.9,0-3.9,0-5.8-0.2c-0.7-0.1-1.2,0.2-1.6,0.8c-2.1,2.8-4.3,5.6-6.4,8.5c-0.3,0.4-0.6,0.9-0.9,1.3c-1.5,1.8-4,1.5-5.2,0.5
			c-1.7-1.4-2.1-3.7-0.7-5.4c3-3.7,6-7.3,9-10.9c1.2-1.4,2.9-2.1,4.8-2.1C64.7-60.5,67-60.5,70.4-60.5L70.4-60.5z"/>
		<path d="M41-7.5c-3.1,0-5.4-2.1-5.6-4.8c-0.2-3,1.7-5.3,4.7-5.6c2.5-0.2,4.9-0.3,7.4-0.4c2.3-0.1,4.5-0.3,6.8-0.3
			c0.8,0,1.2-0.4,1.5-1c1.2-2.2,2.5-4.4,3.8-6.5c0.1-0.2,0.2-0.6,0.5-0.6c0.3,0,0.4,0.3,0.5,0.6c1.4,3,3.6,5.2,6.6,6.6
			c0.7,0.3,1,0.8,0.4,1.5c-1.8,2.6-3.6,5.2-5.7,7.6c-1.1,1.3-2.7,2-4.4,2c-4.4,0.2-8.9,0.4-13.3,0.6C43.2-7.7,42-7.6,41-7.5L41-7.5z
			"/>
		<path d="M78.5-70.7c0-5.1,3.9-9.2,9-9.2c5.4,0,9.2,3.9,9.3,9.2c0.1,5-4.1,9.2-9.1,9.2C82.5-61.5,78.5-65.5,78.5-70.7L78.5-70.7z"
			/>
		<path d="M97.4-34c-1.9,0-3.2-0.5-4.4-1.3c-1.3-0.9-2.5-1.9-3.8-2.8c-0.7-0.5-0.9-0.9-0.6-1.7c0.9-2.3,1.6-4.5,2.4-6.8
			c0.4-1.1,0.4-1,1.4-0.3c1.6,1.3,3,2.7,4.5,4c0.5,0.5,1,0.6,1.7,0.3c3.3-1.2,6.6-2.3,10-3.4c2.2-0.8,4-0.4,5.1,1
			c1.5,1.9,1.1,5.2-1.9,6.2c-3.9,1.3-7.8,2.7-11.7,4C99-34.4,98-33.9,97.4-34L97.4-34z"/>
	</g>
	<g id="Light-L" transform="matrix(1 0 0 1 1079.2 1556)">
		<path d="M73.5-124c6.1,0,12.2,0,18.2,0c3.6,0,5.4,1.8,5.4,5.4c0,2.9,0.1,5.9,0,8.8c-0.1,2.9-2,4.8-4.9,4.8c-2.4,0-4.9,0.1-7.3,0
			c-1.3,0-1.9,0.4-1.9,1.8c0.1,2.2,0.1,4.5,0,6.7c0,1.2,0.5,1.7,1.7,1.9c9.7,1.8,18.5,5.7,26.3,11.7c1.1,0.8,1.7,0.7,2.6-0.2
			c1.5-1.6,3-3.1,4.6-4.6c2.2-2,4.8-2,6.9,0c2.2,2.1,4.3,4.2,6.4,6.4c2.2,2.3,2.1,4.9-0.1,7.2c-1.6,1.7-3.3,3.5-5,5
			c-1.1,1-1.1,1.7-0.3,3c17.8,29.5,8.1,67.4-21.7,84.8c-37.7,22.1-86.5-2.2-91.6-45.5c-1.7-14,1.1-27.1,8.4-39.2
			c0.9-1.4,0.7-2.2-0.5-3.3c-1.8-1.6-3.4-3.3-5-5c-2-2.2-2-4.8,0-6.9c2.1-2.2,4.3-4.4,6.5-6.5c2.2-2,4.7-2,6.9,0.1
			c1.6,1.5,3.2,3.1,4.8,4.7c0.7,0.7,1.2,0.9,2.1,0.2c8-6.2,16.9-10.2,26.9-12c0.9-0.2,1.3-0.6,1.3-1.5c0-2.4,0-4.9,0-7.3
			c0-1.1-0.4-1.5-1.5-1.4c-2.5,0.1-5,0.1-7.5,0c-3.1-0.1-4.9-1.9-5-5c0-3,0-6,0-9c0-3.2,1.9-5,5.1-5C61.2-124,67.3-124,73.5-124
			L73.5-124z M125.3-34.4c-0.1-28.6-23.4-51.8-52-51.7c-28.4,0-51.8,23.5-51.6,51.9C22-3.6,47.5,18,74.8,17.4
			C102.2,16.9,125.3-6.5,125.3-34.4L125.3-34.4z"/>
		<path d="M69.1-59.4c2,0.1,5.1-0.2,8.2,0.2c2.2,0.3,4.4,0.7,6.3,2.2c3.2,2.5,4.4,6.4,3,10.3c-1.9,5.4-3.9,10.8-5.9,16.2
			c-0.5,1.4-0.5,1.4,0.8,2.2c2.7,1.7,5.3,3.5,8,5.1c2.9,1.7,3.9,4.3,3.7,7.5c-0.3,5-0.1,10-0.2,15c0,1.5,0.1,3-0.2,4.4
			c-0.4,1.9-1.9,3.8-4.1,4.2c-2.4,0.3-4.4-0.5-5.6-2.5c-0.5-0.9-0.6-1.8-0.6-2.8c0-5.4,0-10.9,0.3-16.3c0.1-1.2-0.4-1.6-1.4-2
			c-4.8-1.9-9.6-3.6-14.1-6c-3-1.6-4.7-4.4-5.2-7.8c-0.4-2.4,0.2-4.7,1.1-6.9c1.8-4.7,3.6-9.5,5.4-14.2c0.4-1,0.3-1.2-0.7-1.2
			c-1.9,0-3.9,0-5.8-0.2c-0.7-0.1-1.2,0.2-1.6,0.8c-2.1,2.8-4.3,5.6-6.4,8.5c-0.3,0.4-0.6,0.9-0.9,1.3c-1.5,1.8-4,1.5-5.2,0.5
			c-1.7-1.4-2.1-3.7-0.7-5.4c3-3.7,6-7.3,9-10.9c1.2-1.4,2.9-2.1,4.8-2.1C63.3-59.4,65.7-59.4,69.1-59.4L69.1-59.4z"/>
		<path d="M39.6-6.4c-3.1,0-5.4-2.1-5.6-4.8c-0.2-3,1.7-5.3,4.7-5.6c2.5-0.2,4.9-0.3,7.4-0.4c2.3-0.1,4.5-0.3,6.8-0.3
			c0.8,0,1.2-0.4,1.5-1c1.2-2.2,2.5-4.4,3.8-6.5c0.1-0.2,0.2-0.6,0.5-0.6c0.3,0,0.4,0.3,0.5,0.6c1.4,3,3.6,5.2,6.6,6.6
			c0.7,0.3,1,0.8,0.4,1.5c-1.8,2.6-3.6,5.2-5.7,7.6c-1.1,1.3-2.7,2-4.4,2C51.9-7,47.5-6.8,43-6.6C41.8-6.5,40.6-6.5,39.6-6.4
			L39.6-6.4z"/>
		<path d="M77.1-69.6c0-5.1,3.9-9.2,9-9.2c5.4,0,9.2,3.9,9.3,9.2c0.1,5-4.1,9.2-9.1,9.2C81.1-60.4,77.1-64.4,77.1-69.6L77.1-69.6z"
			/>
		<path d="M96-32.8c-1.9,0-3.2-0.5-4.4-1.3c-1.3-0.9-2.5-1.9-3.8-2.8c-0.7-0.5-0.9-0.9-0.6-1.7c0.9-2.3,1.6-4.5,2.4-6.8
			c0.4-1.1,0.4-1,1.4-0.3c1.6,1.3,3,2.7,4.5,4c0.5,0.5,1,0.6,1.7,0.3c3.3-1.2,6.6-2.3,10-3.4c2.2-0.8,4-0.4,5.1,1
			c1.5,1.9,1.1,5.2-1.9,6.2c-3.9,1.3-7.8,2.7-11.7,4C97.7-33.3,96.7-32.8,96-32.8L96-32.8z"/>
	</g>
	<g id="Thin-L" transform="matrix(1 0 0 1 783.716 1556)">
		<path d="M72.1-125.1c6.1,0,12.2,0,18.2,0c3.6,0,5.4,1.8,5.4,5.4c0,2.9,0.1,5.9,0,8.8c-0.1,2.9-2,4.8-4.9,4.8c-2.4,0-4.9,0.1-7.3,0
			c-1.3,0-1.9,0.4-1.9,1.8c0.1,2.2,0.1,4.5,0,6.7c0,1.2,0.5,1.7,1.7,1.9C93-94,101.8-90.1,109.6-84c1.1,0.8,1.7,0.7,2.6-0.2
			c1.5-1.6,3-3.1,4.6-4.6c2.2-2,4.8-2,6.9,0c2.2,2.1,4.3,4.2,6.4,6.4c2.2,2.3,2.1,4.9-0.1,7.2c-1.6,1.7-3.3,3.5-5,5
			c-1.1,1-1.1,1.7-0.3,3c17.8,29.5,8.1,67.4-21.7,84.8c-37.7,22.1-86.5-2.2-91.6-45.5C9.6-41.9,12.3-55,19.6-67
			c0.9-1.4,0.7-2.2-0.5-3.3c-1.8-1.6-3.4-3.3-5-5c-2-2.2-2-4.8,0-6.9c2.1-2.2,4.3-4.4,6.5-6.5c2.2-2,4.7-2,6.9,0.1
			c1.6,1.5,3.2,3.1,4.8,4.7c0.7,0.7,1.2,0.9,2.1,0.2c8-6.2,16.9-10.2,26.9-12c0.9-0.2,1.3-0.6,1.3-1.5c0-2.4,0-4.9,0-7.3
			c0-1.1-0.4-1.5-1.5-1.4c-2.5,0.1-5,0.1-7.5,0c-3.1-0.1-4.9-1.9-5-5c0-3,0-6,0-9c0-3.2,1.9-5,5.1-5
			C59.8-125.2,65.9-125.1,72.1-125.1L72.1-125.1z M123.9-35.5c-0.1-28.6-23.4-51.8-52-51.7c-28.4,0-51.8,23.5-51.6,51.9
			c0.3,30.6,25.7,52.2,53.1,51.6C100.8,15.7,124-7.6,123.9-35.5L123.9-35.5z"/>
		<path d="M67.7-60.5c2,0.1,5.1-0.2,8.2,0.2c2.2,0.3,4.4,0.7,6.3,2.2c3.2,2.5,4.4,6.4,3,10.3c-1.9,5.4-3.9,10.8-5.9,16.2
			c-0.5,1.4-0.5,1.4,0.8,2.2c2.7,1.7,5.3,3.5,8,5.1c2.9,1.7,3.9,4.3,3.7,7.5c-0.3,5-0.1,10-0.2,15c0,1.5,0.1,3-0.2,4.4
			c-0.4,1.9-1.9,3.8-4.1,4.2c-2.4,0.3-4.4-0.5-5.6-2.5c-0.5-0.9-0.6-1.8-0.6-2.8c0-5.4,0-10.9,0.3-16.3c0.1-1.2-0.4-1.6-1.4-2
			c-4.8-1.9-9.6-3.6-14.1-6c-3-1.6-4.7-4.4-5.2-7.8c-0.4-2.4,0.2-4.7,1.1-6.9c1.8-4.7,3.6-9.5,5.4-14.2c0.4-1,0.3-1.2-0.7-1.2
			c-1.9,0-3.9,0-5.8-0.2c-0.7-0.1-1.2,0.2-1.6,0.8c-2.1,2.8-4.3,5.6-6.4,8.5c-0.3,0.4-0.6,0.9-0.9,1.3c-1.5,1.8-4,1.5-5.2,0.5
			c-1.7-1.4-2.1-3.7-0.7-5.4c3-3.7,6-7.3,9-10.9c1.2-1.4,2.9-2.1,4.8-2.1C61.9-60.5,64.3-60.5,67.7-60.5L67.7-60.5z"/>
		<path d="M38.3-7.5c-3.1,0-5.4-2.1-5.6-4.8c-0.2-3,1.7-5.3,4.7-5.6c2.5-0.2,4.9-0.3,7.4-0.4c2.3-0.1,4.5-0.3,6.8-0.3
			c0.8,0,1.2-0.4,1.5-1c1.2-2.2,2.5-4.4,3.8-6.5c0.1-0.2,0.2-0.6,0.5-0.6c0.3,0,0.4,0.3,0.5,0.6c1.4,3,3.6,5.2,6.6,6.6
			c0.7,0.3,1,0.8,0.4,1.5c-1.8,2.6-3.6,5.2-5.7,7.6c-1.1,1.3-2.7,2-4.4,2c-4.4,0.2-8.9,0.4-13.3,0.6C40.5-7.7,39.3-7.6,38.3-7.5
			L38.3-7.5z"/>
		<path d="M75.7-70.7c0-5.1,3.9-9.2,9-9.2c5.4,0,9.2,3.9,9.3,9.2c0.1,5-4.1,9.2-9.1,9.2C79.7-61.5,75.7-65.5,75.7-70.7L75.7-70.7z"
			/>
		<path d="M94.7-34c-1.9,0-3.2-0.5-4.4-1.3c-1.3-0.9-2.5-1.9-3.8-2.8c-0.7-0.5-0.9-0.9-0.6-1.7c0.9-2.3,1.6-4.5,2.4-6.8
			c0.4-1.1,0.4-1,1.4-0.3c1.6,1.3,3,2.7,4.5,4c0.5,0.5,1,0.6,1.7,0.3c3.3-1.2,6.6-2.3,10-3.4c2.2-0.8,4-0.4,5.1,1
			c1.5,1.9,1.1,5.2-1.9,6.2c-3.9,1.3-7.8,2.7-11.7,4C96.3-34.4,95.3-33.9,94.7-34L94.7-34z"/>
	</g>
	<g id="Ultralight-L" transform="matrix(1 0 0 1 487.631 1556)">
		<path d="M71.5-126.1c6.1,0,12.2,0,18.2,0c3.6,0,5.4,1.8,5.4,5.4c0,2.9,0.1,5.9,0,8.8c-0.1,2.9-2,4.8-4.9,4.8c-2.4,0-4.9,0.1-7.3,0
			c-1.3,0-1.9,0.4-1.9,1.8c0.1,2.2,0.1,4.5,0,6.7c0,1.2,0.5,1.7,1.7,1.9C92.4-95,101.2-91.1,109-85c1.1,0.8,1.7,0.7,2.6-0.2
			c1.5-1.6,3-3.1,4.6-4.6c2.2-2,4.8-2,6.9,0c2.2,2.1,4.3,4.2,6.4,6.4c2.2,2.3,2.1,4.9-0.1,7.2c-1.6,1.7-3.3,3.5-5,5
			c-1.1,1-1.1,1.7-0.3,3c17.8,29.5,8.1,67.4-21.7,84.8c-37.7,22.1-86.5-2.2-91.6-45.5C9-42.9,11.7-56,19-68c0.9-1.4,0.7-2.2-0.5-3.3
			c-1.8-1.6-3.4-3.3-5-5c-2-2.2-2-4.8,0-6.9c2.1-2.2,4.3-4.4,6.5-6.5c2.2-2,4.7-2,6.9,0.1c1.6,1.5,3.2,3.1,4.8,4.7
			c0.7,0.7,1.2,0.9,2.1,0.2c8-6.2,16.9-10.2,26.9-12c0.9-0.2,1.3-0.6,1.3-1.5c0-2.4,0-4.9,0-7.3c0-1.1-0.4-1.5-1.5-1.4
			c-2.5,0.1-5,0.1-7.5,0c-3.1-0.1-4.9-1.9-5-5c0-3,0-6,0-9c0-3.2,1.9-5,5.1-5C59.2-126.2,65.4-126.1,71.5-126.1L71.5-126.1z
			 M123.3-36.5c-0.1-28.6-23.4-51.8-52-51.7c-28.4,0-51.8,23.5-51.6,51.9C20-5.7,45.5,15.9,72.9,15.3
			C100.2,14.7,123.4-8.6,123.3-36.5L123.3-36.5z"/>
		<path d="M67.1-61.5c2,0.1,5.1-0.2,8.2,0.2c2.2,0.3,4.4,0.7,6.3,2.2c3.2,2.5,4.4,6.4,3,10.3c-1.9,5.4-3.9,10.8-5.9,16.2
			c-0.5,1.4-0.5,1.4,0.8,2.2c2.7,1.7,5.3,3.5,8,5.1c2.9,1.7,3.9,4.3,3.7,7.5c-0.3,5-0.1,10-0.2,15c0,1.5,0.1,3-0.2,4.4
			c-0.4,1.9-1.9,3.8-4.1,4.2c-2.4,0.3-4.4-0.5-5.6-2.5c-0.5-0.9-0.6-1.8-0.6-2.8c0-5.4,0-10.9,0.3-16.3c0.1-1.2-0.4-1.6-1.4-2
			c-4.8-1.9-9.6-3.6-14.1-6c-3-1.6-4.7-4.4-5.2-7.8c-0.4-2.4,0.2-4.7,1.1-6.9c1.8-4.7,3.6-9.5,5.4-14.2c0.4-1,0.3-1.2-0.7-1.2
			c-1.9,0-3.9,0-5.8-0.2c-0.7-0.1-1.2,0.2-1.6,0.8c-2.1,2.8-4.3,5.6-6.4,8.5c-0.3,0.4-0.6,0.9-0.9,1.3c-1.5,1.8-4,1.5-5.2,0.5
			c-1.7-1.4-2.1-3.7-0.7-5.4c3-3.7,6-7.3,9-10.9c1.2-1.4,2.9-2.1,4.8-2.1C61.3-61.5,63.7-61.5,67.1-61.5L67.1-61.5z"/>
		<path d="M37.7-8.5c-3.1,0-5.4-2.1-5.6-4.8c-0.2-3,1.7-5.3,4.7-5.6c2.5-0.2,4.9-0.3,7.4-0.4c2.3-0.1,4.5-0.3,6.8-0.3
			c0.8,0,1.2-0.4,1.5-1c1.2-2.2,2.5-4.4,3.8-6.5c0.1-0.2,0.2-0.6,0.5-0.6c0.3,0,0.4,0.3,0.5,0.6c1.4,3,3.6,5.2,6.6,6.6
			c0.7,0.3,1,0.8,0.4,1.5c-1.8,2.6-3.6,5.2-5.7,7.6c-1.1,1.3-2.7,2-4.4,2C50-9.1,45.5-8.9,41.1-8.7C39.9-8.7,38.7-8.6,37.7-8.5
			L37.7-8.5z"/>
		<path d="M75.1-71.7c0-5.1,3.9-9.2,9-9.2c5.4,0,9.2,3.9,9.3,9.2c0.1,5-4.1,9.2-9.1,9.2C79.1-62.5,75.2-66.5,75.1-71.7L75.1-71.7z"
			/>
		<path d="M94.1-35c-1.9,0-3.2-0.5-4.4-1.3c-1.3-0.9-2.5-1.9-3.8-2.8c-0.7-0.5-0.9-0.9-0.6-1.7c0.9-2.3,1.6-4.5,2.4-6.8
			c0.4-1.1,0.4-1,1.4-0.3c1.6,1.3,3,2.7,4.5,4c0.5,0.5,1,0.6,1.7,0.3c3.3-1.2,6.6-2.3,10-3.4c2.2-0.8,4-0.4,5.1,1
			c1.5,1.9,1.1,5.2-1.9,6.2c-3.9,1.3-7.8,2.7-11.7,4C95.7-35.4,94.7-34.9,94.1-35L94.1-35z"/>
	</g>
	<g id="Black-M" transform="matrix(1 0 0 1 2871.36 1126)">
		<path d="M64.3-102.9c4.7,0,9.4,0,14.1,0c2.8,0,4.2,1.4,4.2,4.2c0,2.3,0,4.5,0,6.8c0,2.3-1.5,3.7-3.8,3.7c-1.9,0-3.8,0.1-5.7,0
			c-1,0-1.5,0.3-1.4,1.4c0.1,1.7,0,3.5,0,5.2c0,0.9,0.4,1.3,1.3,1.5c7.5,1.4,14.3,4.4,20.3,9.1c0.8,0.7,1.3,0.6,2-0.2
			c1.1-1.2,2.3-2.4,3.5-3.5c1.7-1.6,3.7-1.6,5.3,0c1.7,1.6,3.3,3.2,4.9,4.9c1.7,1.8,1.7,3.8-0.1,5.6c-1.3,1.3-2.5,2.7-3.9,3.9
			c-0.9,0.8-0.8,1.3-0.3,2.3c13.8,22.8,6.3,52-16.8,65.5c-29.1,17-66.8-1.7-70.8-35.2C16-38.6,18.1-48.7,23.8-58
			c0.7-1.1,0.6-1.7-0.4-2.5c-1.4-1.2-2.6-2.5-3.9-3.9c-1.6-1.7-1.6-3.7,0-5.4c1.6-1.7,3.3-3.4,5-5c1.7-1.6,3.6-1.5,5.3,0
			c1.3,1.2,2.5,2.4,3.7,3.6c0.5,0.5,0.9,0.7,1.6,0.2c6.1-4.8,13.1-7.9,20.7-9.3c0.7-0.1,1-0.5,1-1.2c0-1.9,0-3.8,0-5.7
			c0-0.8-0.3-1.1-1.2-1.1c-1.9,0-3.9,0-5.8,0c-2.4,0-3.8-1.5-3.8-3.9c0-2.3,0-4.6,0-7c0-2.5,1.5-3.9,4-3.9
			C54.8-102.9,59.6-102.9,64.3-102.9L64.3-102.9z M104.3-33.7c-0.1-22.1-18-40-40.1-39.9c-21.9,0-40,18.2-39.8,40.1
			c0.2,23.6,19.9,40.3,41,39.9C86.4,5.9,104.4-12.1,104.3-33.7L104.3-33.7z"/>
		<path d="M60.9-53c1.6,0.1,3.9-0.2,6.3,0.1c1.7,0.2,3.4,0.6,4.9,1.7c2.5,1.9,3.4,4.9,2.3,7.9c-1.5,4.2-3,8.4-4.6,12.5
			c-0.4,1.1-0.4,1.1,0.6,1.7c2.1,1.3,4.1,2.7,6.2,4c2.2,1.3,3,3.4,2.8,5.8c-0.2,3.9-0.1,7.7-0.2,11.6c0,1.1,0.1,2.3-0.1,3.4
			c-0.3,1.5-1.4,3-3.1,3.2c-1.9,0.3-3.4-0.4-4.3-1.9c-0.4-0.7-0.5-1.4-0.5-2.2c0-4.2,0-8.4,0.2-12.6c0-0.9-0.3-1.2-1.1-1.5
			c-3.7-1.4-7.4-2.8-10.9-4.7c-2.3-1.2-3.6-3.4-4-6c-0.3-1.9,0.2-3.6,0.9-5.4c1.4-3.6,2.8-7.3,4.2-11c0.3-0.8,0.2-0.9-0.6-0.9
			c-1.5,0-3,0-4.5-0.2c-0.6-0.1-0.9,0.2-1.3,0.6c-1.6,2.2-3.3,4.4-5,6.5c-0.2,0.3-0.4,0.7-0.7,1c-1.2,1.4-3.1,1.2-4,0.4
			c-1.3-1.1-1.6-2.9-0.6-4.2c2.3-2.8,4.6-5.6,7-8.4c0.9-1.1,2.2-1.6,3.7-1.6C56.4-53,58.3-53,60.9-53L60.9-53z"/>
		<path d="M38.2-12.1c-2.4,0-4.2-1.6-4.3-3.7c-0.1-2.3,1.3-4.1,3.6-4.3c1.9-0.2,3.8-0.2,5.7-0.3c1.8-0.1,3.5-0.2,5.3-0.3
			c0.6,0,0.9-0.3,1.2-0.8c1-1.7,1.9-3.4,2.9-5c0.1-0.2,0.2-0.5,0.4-0.4c0.2,0,0.3,0.3,0.4,0.5c1.1,2.3,2.8,4,5.1,5.1
			c0.5,0.3,0.8,0.6,0.3,1.2c-1.4,2-2.8,4-4.4,5.9c-0.9,1-2.1,1.5-3.4,1.6c-3.4,0.2-6.9,0.3-10.3,0.5C39.9-12.2,38.9-12.2,38.2-12.1
			L38.2-12.1z"/>
		<path d="M67.1-60.8c0-4,3-7.1,7-7.1c4.2,0,7.1,3,7.2,7.1c0.1,3.9-3.2,7.1-7,7.1C70.2-53.8,67.1-56.8,67.1-60.8L67.1-60.8z"/>
		<path d="M81.7-32.5c-1.5,0-2.5-0.4-3.4-1c-1-0.7-2-1.5-2.9-2.2C74.9-36,74.7-36.4,75-37c0.7-1.7,1.2-3.5,1.9-5.3
			c0.3-0.8,0.3-0.8,1.1-0.2c1.2,1,2.4,2.1,3.5,3.1c0.4,0.4,0.8,0.4,1.3,0.3c2.6-0.9,5.1-1.8,7.7-2.6c1.7-0.6,3.1-0.3,3.9,0.8
			c1.1,1.4,0.8,4-1.5,4.8c-3,1-6,2.1-9.1,3.1C83-32.8,82.2-32.4,81.7-32.5L81.7-32.5z"/>
	</g>
	<g id="Heavy-M" transform="matrix(1 0 0 1 2575.48 1126)">
		<path d="M63.5-104.9c4.7,0,9.4,0,14.1,0c2.8,0,4.2,1.4,4.2,4.2c0,2.3,0,4.5,0,6.8c0,2.3-1.5,3.7-3.8,3.7c-1.9,0-3.8,0.1-5.7,0
			c-1,0-1.5,0.3-1.4,1.4c0.1,1.7,0,3.5,0,5.2c0,0.9,0.4,1.3,1.3,1.5c7.5,1.4,14.3,4.4,20.3,9.1c0.8,0.7,1.3,0.6,2-0.2
			c1.1-1.2,2.3-2.4,3.5-3.5c1.7-1.6,3.7-1.6,5.3,0c1.7,1.6,3.3,3.2,4.9,4.9c1.7,1.8,1.7,3.8-0.1,5.6c-1.3,1.3-2.5,2.7-3.9,3.9
			c-0.9,0.8-0.8,1.3-0.3,2.3c13.8,22.8,6.3,52-16.8,65.5c-29.1,17-66.8-1.7-70.8-35.2c-1.3-10.8,0.8-20.9,6.5-30.2
			c0.7-1.1,0.6-1.7-0.4-2.5c-1.4-1.2-2.6-2.5-3.9-3.9c-1.6-1.7-1.6-3.7,0-5.4c1.6-1.7,3.3-3.4,5-5c1.7-1.6,3.6-1.5,5.3,0
			c1.3,1.2,2.5,2.4,3.7,3.6c0.5,0.5,0.9,0.7,1.6,0.2c6.1-4.8,13.1-7.9,20.7-9.3c0.7-0.1,1-0.5,1-1.2c0-1.9,0-3.8,0-5.7
			c0-0.8-0.3-1.1-1.2-1.1c-1.9,0-3.9,0-5.8,0c-2.4,0-3.8-1.5-3.8-3.9c0-2.3,0-4.6,0-7c0-2.5,1.5-3.9,4-3.9
			C54-104.9,58.7-104.9,63.5-104.9L63.5-104.9z M103.5-35.7c-0.1-22.1-18-40-40.1-39.9c-21.9,0-40,18.2-39.8,40.1
			c0.2,23.6,19.9,40.3,41,39.9C85.6,3.9,103.5-14.1,103.5-35.7L103.5-35.7z"/>
		<path d="M60.1-55c1.6,0.1,3.9-0.2,6.3,0.1c1.7,0.2,3.4,0.6,4.9,1.7c2.5,1.9,3.4,4.9,2.3,7.9c-1.5,4.2-3,8.4-4.6,12.5
			c-0.4,1.1-0.4,1.1,0.6,1.7c2.1,1.3,4.1,2.7,6.2,4c2.2,1.3,3,3.4,2.8,5.8c-0.2,3.9-0.1,7.7-0.2,11.6c0,1.1,0.1,2.3-0.1,3.4
			c-0.3,1.5-1.4,3-3.1,3.2c-1.9,0.3-3.4-0.4-4.3-1.9c-0.4-0.7-0.5-1.4-0.5-2.2c0-4.2,0-8.4,0.2-12.6c0-0.9-0.3-1.2-1.1-1.5
			c-3.7-1.4-7.4-2.8-10.9-4.7c-2.3-1.2-3.6-3.4-4-6c-0.3-1.9,0.2-3.6,0.9-5.4c1.4-3.6,2.8-7.3,4.2-11c0.3-0.8,0.2-0.9-0.6-0.9
			c-1.5,0-3,0-4.5-0.2c-0.6-0.1-0.9,0.2-1.3,0.6c-1.6,2.2-3.3,4.4-5,6.5c-0.2,0.3-0.4,0.7-0.7,1c-1.2,1.4-3.1,1.2-4,0.4
			c-1.3-1.1-1.6-2.9-0.6-4.2c2.3-2.8,4.6-5.6,7-8.4c0.9-1.1,2.2-1.6,3.7-1.6C55.6-55,57.5-55,60.1-55L60.1-55z"/>
		<path d="M37.4-14.1c-2.4,0-4.2-1.6-4.3-3.7c-0.1-2.3,1.3-4.1,3.6-4.3c1.9-0.2,3.8-0.2,5.7-0.3c1.8-0.1,3.5-0.2,5.3-0.3
			c0.6,0,0.9-0.3,1.2-0.8c1-1.7,1.9-3.4,2.9-5c0.1-0.2,0.2-0.5,0.4-0.4c0.2,0,0.3,0.3,0.4,0.5c1.1,2.3,2.8,4,5.1,5.1
			c0.5,0.3,0.8,0.6,0.3,1.2c-1.4,2-2.8,4-4.4,5.9c-0.9,1-2.1,1.5-3.4,1.6c-3.4,0.2-6.9,0.3-10.3,0.5C39.1-14.2,38.1-14.2,37.4-14.1
			L37.4-14.1z"/>
		<path d="M66.3-62.9c0-4,3-7.1,7-7.1c4.2,0,7.1,3,7.2,7.1c0.1,3.9-3.2,7.1-7,7.1C69.4-55.8,66.3-58.8,66.3-62.9L66.3-62.9z"/>
		<path d="M80.9-34.5c-1.5,0-2.5-0.4-3.4-1c-1-0.7-2-1.5-2.9-2.2c-0.5-0.4-0.7-0.7-0.4-1.3c0.7-1.7,1.2-3.5,1.9-5.3
			c0.3-0.8,0.3-0.8,1.1-0.2c1.2,1,2.4,2.1,3.5,3.1c0.4,0.4,0.8,0.4,1.3,0.3c2.6-0.9,5.1-1.8,7.7-2.6c1.7-0.6,3.1-0.3,3.9,0.8
			c1.1,1.4,0.8,4-1.5,4.8c-3,1-6,2.1-9.1,3.1C82.2-34.8,81.4-34.4,80.9-34.5L80.9-34.5z"/>
	</g>
	<g id="Bold-M" transform="matrix(1 0 0 1 2279.69 1126)">
		<path d="M62.6-104.9c4.7,0,9.4,0,14.1,0c2.8,0,4.2,1.4,4.2,4.2c0,2.3,0,4.5,0,6.8c0,2.3-1.5,3.7-3.8,3.7c-1.9,0-3.8,0.1-5.7,0
			c-1,0-1.5,0.3-1.4,1.4c0.1,1.7,0,3.5,0,5.2c0,0.9,0.4,1.3,1.3,1.5c7.5,1.4,14.3,4.4,20.3,9.1c0.8,0.7,1.3,0.6,2-0.2
			c1.1-1.2,2.3-2.4,3.5-3.5c1.7-1.6,3.7-1.6,5.3,0c1.7,1.6,3.3,3.2,4.9,4.9c1.7,1.8,1.7,3.8-0.1,5.6c-1.3,1.3-2.5,2.7-3.9,3.9
			c-0.9,0.8-0.8,1.3-0.3,2.3c13.8,22.8,6.3,52-16.8,65.5c-29.1,17-66.8-1.7-70.8-35.2C14.3-40.6,16.4-50.7,22-60
			c0.7-1.1,0.6-1.7-0.4-2.5c-1.4-1.2-2.6-2.5-3.9-3.9c-1.6-1.7-1.6-3.7,0-5.4c1.6-1.7,3.3-3.4,5-5c1.7-1.6,3.6-1.5,5.3,0
			c1.3,1.2,2.5,2.4,3.7,3.6c0.5,0.5,0.9,0.7,1.6,0.2c6.1-4.8,13.1-7.9,20.7-9.3c0.7-0.1,1-0.5,1-1.2c0-1.9,0-3.8,0-5.7
			c0-0.8-0.3-1.1-1.2-1.1c-1.9,0-3.9,0-5.8,0c-2.4,0-3.8-1.5-3.8-3.9c0-2.3,0-4.6,0-7c0-2.5,1.5-3.9,4-3.9
			C53.1-104.9,57.8-104.9,62.6-104.9L62.6-104.9z M102.6-35.7c-0.1-22.1-18-40-40.1-39.9c-21.9,0-40,18.2-39.8,40.1
			c0.2,23.6,19.9,40.3,41,39.9C84.7,3.9,102.6-14.1,102.6-35.7L102.6-35.7z"/>
		<path d="M59.2-55c1.6,0.1,3.9-0.2,6.3,0.1c1.7,0.2,3.4,0.6,4.9,1.7c2.5,1.9,3.4,4.9,2.3,7.9c-1.5,4.2-3,8.4-4.6,12.5
			c-0.4,1.1-0.4,1.1,0.6,1.7c2.1,1.3,4.1,2.7,6.2,4c2.2,1.3,3,3.4,2.8,5.8c-0.2,3.9-0.1,7.7-0.2,11.6c0,1.1,0.1,2.3-0.1,3.4
			c-0.3,1.5-1.4,3-3.1,3.2C72.4-2.7,70.9-3.4,70-5c-0.4-0.7-0.5-1.4-0.5-2.2c0-4.2,0-8.4,0.2-12.6c0-0.9-0.3-1.2-1.1-1.5
			c-3.7-1.4-7.4-2.8-10.9-4.7c-2.3-1.2-3.6-3.4-4-6c-0.3-1.9,0.2-3.6,0.9-5.4c1.4-3.6,2.8-7.3,4.2-11c0.3-0.8,0.2-0.9-0.6-0.9
			c-1.5,0-3,0-4.5-0.2c-0.6-0.1-0.9,0.2-1.3,0.6c-1.6,2.2-3.3,4.4-5,6.5c-0.2,0.3-0.4,0.7-0.7,1c-1.2,1.4-3.1,1.2-4,0.4
			c-1.3-1.1-1.6-2.9-0.6-4.2c2.3-2.8,4.6-5.6,7-8.4c0.9-1.1,2.2-1.6,3.7-1.6C54.7-55,56.5-55,59.2-55L59.2-55z"/>
		<path d="M36.4-14.1c-2.4,0-4.2-1.6-4.3-3.7c-0.1-2.3,1.3-4.1,3.6-4.3c1.9-0.2,3.8-0.2,5.7-0.3c1.8-0.1,3.5-0.2,5.3-0.3
			c0.6,0,0.9-0.3,1.2-0.8c1-1.7,1.9-3.4,2.9-5c0.1-0.2,0.2-0.5,0.4-0.4c0.2,0,0.3,0.3,0.4,0.5c1.1,2.3,2.8,4,5.1,5.1
			c0.5,0.3,0.8,0.6,0.3,1.2c-1.4,2-2.8,4-4.4,5.9c-0.9,1-2.1,1.5-3.4,1.6c-3.4,0.2-6.9,0.3-10.3,0.5C38.1-14.2,37.2-14.2,36.4-14.1
			L36.4-14.1z"/>
		<path d="M65.4-62.9c0-4,3-7.1,7-7.1c4.2,0,7.1,3,7.2,7.1c0.1,3.9-3.2,7.1-7,7.1C68.4-55.8,65.4-58.8,65.4-62.9L65.4-62.9z"/>
		<path d="M80-34.5c-1.5,0-2.5-0.4-3.4-1c-1-0.7-2-1.5-2.9-2.2C73.2-38,73-38.4,73.2-39c0.7-1.7,1.2-3.5,1.9-5.3
			c0.3-0.8,0.3-0.8,1.1-0.2c1.2,1,2.4,2.1,3.5,3.1c0.4,0.4,0.8,0.4,1.3,0.3c2.6-0.9,5.1-1.8,7.7-2.6c1.7-0.6,3.1-0.3,3.9,0.8
			c1.1,1.4,0.8,4-1.5,4.8c-3,1-6,2.1-9.1,3.1C81.2-34.8,80.5-34.4,80-34.5L80-34.5z"/>
	</g>
	<g id="Semibold-M" transform="matrix(1 0 0 1 1983.62 1126)">
		<path d="M58.1-101.9c4.7,0,9.4,0,14.1,0c2.8,0,4.2,1.4,4.2,4.2c0,2.3,0,4.5,0,6.8c0,2.3-1.5,3.7-3.8,3.7c-1.9,0-3.8,0.1-5.7,0
			c-1,0-1.5,0.3-1.4,1.4c0.1,1.7,0,3.5,0,5.2c0,0.9,0.4,1.3,1.3,1.5c7.5,1.4,14.3,4.4,20.3,9.1c0.8,0.7,1.3,0.6,2-0.2
			c1.1-1.2,2.3-2.4,3.5-3.5c1.7-1.6,3.7-1.6,5.3,0c1.7,1.6,3.3,3.2,4.9,4.9c1.7,1.8,1.7,3.8-0.1,5.6c-1.3,1.3-2.5,2.7-3.9,3.9
			c-0.9,0.8-0.8,1.3-0.3,2.3c13.8,22.8,6.3,52-16.8,65.5c-29.1,17-66.8-1.7-70.8-35.2C9.9-37.6,12-47.7,17.6-57
			c0.7-1.1,0.6-1.7-0.4-2.5c-1.4-1.2-2.6-2.5-3.9-3.9c-1.6-1.7-1.6-3.7,0-5.4c1.6-1.7,3.3-3.4,5-5c1.7-1.6,3.6-1.5,5.3,0
			c1.3,1.2,2.5,2.4,3.7,3.6c0.5,0.5,0.9,0.7,1.6,0.2c6.1-4.8,13.1-7.9,20.7-9.3c0.7-0.1,1-0.5,1-1.2c0-1.9,0-3.8,0-5.7
			c0-0.8-0.3-1.1-1.2-1.1c-1.9,0-3.9,0-5.8,0c-2.4,0-3.8-1.5-3.8-3.9c0-2.3,0-4.6,0-7c0-2.5,1.5-3.9,4-3.9
			C48.6-101.9,53.4-101.9,58.1-101.9L58.1-101.9z M98.1-32.7c-0.1-22.1-18-40-40.1-39.9c-21.9,0-40,18.2-39.8,40.1
			c0.2,23.6,19.9,40.3,41,39.9C80.3,6.9,98.2-11.1,98.1-32.7L98.1-32.7z"/>
		<path d="M54.7-52c1.6,0.1,3.9-0.2,6.3,0.1c1.7,0.2,3.4,0.6,4.9,1.7c2.5,1.9,3.4,4.9,2.3,7.9c-1.5,4.2-3,8.4-4.6,12.5
			c-0.4,1.1-0.4,1.1,0.6,1.7c2.1,1.3,4.1,2.7,6.2,4c2.2,1.3,3,3.4,2.8,5.8c-0.2,3.9-0.1,7.7-0.2,11.6c0,1.1,0.1,2.3-0.1,3.4
			c-0.3,1.5-1.4,3-3.1,3.2C68,0.3,66.5-0.4,65.5-2c-0.4-0.7-0.5-1.4-0.5-2.2c0-4.2,0-8.4,0.2-12.6c0-0.9-0.3-1.2-1.1-1.5
			c-3.7-1.4-7.4-2.8-10.9-4.7c-2.3-1.2-3.6-3.4-4-6c-0.3-1.9,0.2-3.6,0.9-5.4c1.4-3.6,2.8-7.3,4.2-11c0.3-0.8,0.2-0.9-0.6-0.9
			c-1.5,0-3,0-4.5-0.2c-0.6-0.1-0.9,0.2-1.3,0.6c-1.6,2.2-3.3,4.4-5,6.5c-0.2,0.3-0.4,0.7-0.7,1c-1.2,1.4-3.1,1.2-4,0.4
			c-1.3-1.1-1.6-2.9-0.6-4.2c2.3-2.8,4.6-5.6,7-8.4c0.9-1.1,2.2-1.6,3.7-1.6C50.3-52,52.1-52,54.7-52L54.7-52z"/>
		<path d="M32-11.1c-2.4,0-4.2-1.6-4.3-3.7c-0.1-2.3,1.3-4.1,3.6-4.3c1.9-0.2,3.8-0.2,5.7-0.3c1.8-0.1,3.5-0.2,5.3-0.3
			c0.6,0,0.9-0.3,1.2-0.8c1-1.7,1.9-3.4,2.9-5c0.1-0.2,0.2-0.5,0.4-0.4c0.2,0,0.3,0.3,0.4,0.5c1.1,2.3,2.8,4,5.1,5.1
			c0.5,0.3,0.8,0.6,0.3,1.2c-1.4,2-2.8,4-4.4,5.9c-0.9,1-2.1,1.5-3.4,1.6c-3.4,0.2-6.9,0.3-10.3,0.5C33.7-11.2,32.8-11.2,32-11.1
			L32-11.1z"/>
		<path d="M60.9-59.8c0-4,3-7.1,7-7.1c4.2,0,7.1,3,7.2,7.1c0.1,3.9-3.2,7.1-7,7.1C64-52.8,61-55.8,60.9-59.8L60.9-59.8z"/>
		<path d="M75.6-31.5c-1.5,0-2.5-0.4-3.4-1c-1-0.7-2-1.5-2.9-2.2c-0.5-0.4-0.7-0.7-0.4-1.3c0.7-1.7,1.2-3.5,1.9-5.3
			c0.3-0.8,0.3-0.8,1.1-0.2c1.2,1,2.4,2.1,3.5,3.1c0.4,0.4,0.8,0.4,1.3,0.3c2.6-0.9,5.1-1.8,7.7-2.6c1.7-0.6,3.1-0.3,3.9,0.8
			c1.1,1.4,0.8,4-1.5,4.8c-3,1-6,2.1-9.1,3.1C76.8-31.8,76-31.4,75.6-31.5L75.6-31.5z"/>
	</g>
	<g id="Medium-M" transform="matrix(1 0 0 1 1687.4 1126)">
		<path d="M60-102.9c4.7,0,9.4,0,14.1,0c2.8,0,4.2,1.4,4.2,4.2c0,2.3,0,4.5,0,6.8c0,2.3-1.5,3.7-3.8,3.7c-1.9,0-3.8,0.1-5.7,0
			c-1,0-1.5,0.3-1.4,1.4c0.1,1.7,0,3.5,0,5.2c0,0.9,0.4,1.3,1.3,1.5c7.5,1.4,14.3,4.4,20.3,9.1c0.8,0.7,1.3,0.6,2-0.2
			c1.1-1.2,2.3-2.4,3.5-3.5c1.7-1.6,3.7-1.6,5.3,0c1.7,1.6,3.3,3.2,4.9,4.9c1.7,1.8,1.7,3.8-0.1,5.6c-1.3,1.3-2.5,2.7-3.9,3.9
			c-0.9,0.8-0.8,1.3-0.3,2.3c13.8,22.8,6.3,52-16.8,65.5C54.6,24.4,16.9,5.7,13-27.8c-1.3-10.8,0.8-20.9,6.5-30.2
			c0.7-1.1,0.6-1.7-0.4-2.5c-1.4-1.2-2.6-2.5-3.9-3.9c-1.6-1.7-1.6-3.7,0-5.4c1.6-1.7,3.3-3.4,5-5c1.7-1.6,3.6-1.5,5.3,0
			c1.3,1.2,2.5,2.4,3.7,3.6c0.5,0.5,0.9,0.7,1.6,0.2c6.1-4.8,13.1-7.9,20.7-9.3c0.7-0.1,1-0.5,1-1.2c0-1.9,0-3.8,0-5.7
			c0-0.8-0.3-1.1-1.2-1.1c-1.9,0-3.9,0-5.8,0c-2.4,0-3.8-1.5-3.8-3.9c0-2.3,0-4.6,0-7c0-2.5,1.5-3.9,4-3.9
			C50.5-102.9,55.2-102.9,60-102.9L60-102.9z M100-33.7c-0.1-22.1-18-40-40.1-39.9c-21.9,0-40,18.2-39.8,40.1
			C20.2-9.9,39.9,6.8,61,6.3C82.1,5.9,100-12.1,100-33.7L100-33.7z"/>
		<path d="M56.6-53c1.6,0.1,3.9-0.2,6.3,0.1c1.7,0.2,3.4,0.6,4.9,1.7c2.5,1.9,3.4,4.9,2.3,7.9c-1.5,4.2-3,8.4-4.6,12.5
			c-0.4,1.1-0.4,1.1,0.6,1.7c2.1,1.3,4.1,2.7,6.2,4c2.2,1.3,3,3.4,2.8,5.8c-0.2,3.9-0.1,7.7-0.2,11.6c0,1.1,0.1,2.3-0.1,3.4
			c-0.3,1.5-1.4,3-3.1,3.2c-1.9,0.3-3.4-0.4-4.3-1.9c-0.4-0.7-0.5-1.4-0.5-2.2c0-4.2,0-8.4,0.2-12.6c0-0.9-0.3-1.2-1.1-1.5
			c-3.7-1.4-7.4-2.8-10.9-4.7c-2.3-1.2-3.6-3.4-4-6c-0.3-1.9,0.2-3.6,0.9-5.4c1.4-3.6,2.8-7.3,4.2-11c0.3-0.8,0.2-0.9-0.6-0.9
			c-1.5,0-3,0-4.5-0.2c-0.6-0.1-0.9,0.2-1.3,0.6c-1.6,2.2-3.3,4.4-5,6.5c-0.2,0.3-0.4,0.7-0.7,1c-1.2,1.4-3.1,1.2-4,0.4
			c-1.3-1.1-1.6-2.9-0.6-4.2c2.3-2.8,4.6-5.6,7-8.4c0.9-1.1,2.2-1.6,3.7-1.6C52.1-53,53.9-53,56.6-53L56.6-53z"/>
		<path d="M33.8-12.1c-2.4,0-4.2-1.6-4.3-3.7c-0.1-2.3,1.3-4.1,3.6-4.3c1.9-0.2,3.8-0.2,5.7-0.3c1.8-0.1,3.5-0.2,5.3-0.3
			c0.6,0,0.9-0.3,1.2-0.8c1-1.7,1.9-3.4,2.9-5c0.1-0.2,0.2-0.5,0.4-0.4c0.2,0,0.3,0.3,0.4,0.5c1.1,2.3,2.8,4,5.1,5.1
			c0.5,0.3,0.8,0.6,0.3,1.2c-1.4,2-2.8,4-4.4,5.9c-0.9,1-2.1,1.5-3.4,1.6c-3.4,0.2-6.9,0.3-10.3,0.5C35.5-12.2,34.6-12.2,33.8-12.1
			L33.8-12.1z"/>
		<path d="M62.8-60.8c0-4,3-7.1,7-7.1c4.2,0,7.1,3,7.2,7.1c0.1,3.9-3.2,7.1-7,7.1C65.8-53.8,62.8-56.8,62.8-60.8L62.8-60.8z"/>
		<path d="M77.4-32.5c-1.5,0-2.5-0.4-3.4-1c-1-0.7-2-1.5-2.9-2.2c-0.5-0.4-0.7-0.7-0.4-1.3c0.7-1.7,1.2-3.5,1.9-5.3
			c0.3-0.8,0.3-0.8,1.1-0.2c1.2,1,2.4,2.1,3.5,3.1c0.4,0.4,0.8,0.4,1.3,0.3c2.6-0.9,5.1-1.8,7.7-2.6c1.7-0.6,3.1-0.3,3.9,0.8
			c1.1,1.4,0.8,4-1.5,4.8c-3,1-6,2.1-9.1,3.1C78.6-32.8,77.9-32.4,77.4-32.5L77.4-32.5z"/>
	</g>
	<g id="Regular-M" transform="matrix(1 0 0 1 1391.32 1126)">
		<path d="M60.8-103.5c4.7,0,9.4,0,14.1,0c2.8,0,4.2,1.4,4.2,4.2c0,2.3,0,4.5,0,6.8c0,2.3-1.5,3.7-3.8,3.7c-1.9,0-3.8,0.1-5.7,0
			c-1,0-1.5,0.3-1.4,1.4c0.1,1.7,0,3.5,0,5.2c0,0.9,0.4,1.3,1.3,1.5c7.5,1.4,14.3,4.4,20.3,9.1c0.8,0.7,1.3,0.6,2-0.2
			c1.1-1.2,2.3-2.4,3.5-3.5c1.7-1.6,3.7-1.6,5.3,0c1.7,1.6,3.3,3.2,4.9,4.9c1.7,1.8,1.7,3.8-0.1,5.6c-1.3,1.3-2.5,2.7-3.9,3.9
			c-0.9,0.8-0.8,1.3-0.3,2.3c13.8,22.8,6.3,52-16.8,65.5c-29.1,17-66.8-1.7-70.8-35.2c-1.3-10.8,0.8-20.9,6.5-30.2
			c0.7-1.1,0.6-1.7-0.4-2.5c-1.4-1.2-2.6-2.5-3.9-3.9c-1.6-1.7-1.6-3.7,0-5.4c1.6-1.7,3.3-3.4,5-5c1.7-1.6,3.6-1.5,5.3,0
			c1.3,1.2,2.5,2.4,3.7,3.6c0.5,0.5,0.9,0.7,1.6,0.2c6.1-4.8,13.1-7.9,20.7-9.3c0.7-0.1,1-0.5,1-1.2c0-1.9,0-3.8,0-5.7
			c0-0.8-0.3-1.1-1.2-1.1c-1.9,0-3.9,0-5.8,0c-2.4,0-3.8-1.5-3.8-3.9c0-2.3,0-4.6,0-7c0-2.5,1.5-3.9,4-3.9
			C51.3-103.5,56-103.5,60.8-103.5L60.8-103.5z M100.8-34.3c-0.1-22.1-18-40-40.1-39.9c-21.9,0-40,18.2-39.8,40.1
			C21-10.5,40.7,6.1,61.8,5.7C82.9,5.3,100.8-12.7,100.8-34.3L100.8-34.3z"/>
		<path d="M57.4-53.6c1.6,0.1,3.9-0.2,6.3,0.1c1.7,0.2,3.4,0.6,4.9,1.7c2.5,1.9,3.4,4.9,2.3,7.9c-1.5,4.2-3,8.4-4.6,12.5
			c-0.4,1.1-0.4,1.1,0.6,1.7c2.1,1.3,4.1,2.7,6.2,4c2.2,1.3,3,3.4,2.8,5.8c-0.2,3.9-0.1,7.7-0.2,11.6c0,1.1,0.1,2.3-0.1,3.4
			c-0.3,1.5-1.4,3-3.1,3.2c-1.9,0.3-3.4-0.4-4.3-1.9c-0.4-0.7-0.5-1.4-0.5-2.2c0-4.2,0-8.4,0.2-12.6c0-0.9-0.3-1.2-1.1-1.5
			c-3.7-1.4-7.4-2.8-10.9-4.7c-2.3-1.2-3.6-3.4-4-6c-0.3-1.9,0.2-3.6,0.9-5.4c1.4-3.6,2.8-7.3,4.2-11c0.3-0.8,0.2-0.9-0.6-0.9
			c-1.5,0-3,0-4.5-0.2c-0.6-0.1-0.9,0.2-1.3,0.6c-1.6,2.2-3.3,4.4-5,6.5c-0.2,0.3-0.4,0.7-0.7,1c-1.2,1.4-3.1,1.2-4,0.4
			c-1.3-1.1-1.6-2.9-0.6-4.2c2.3-2.8,4.6-5.6,7-8.4c0.9-1.1,2.2-1.6,3.7-1.6C52.9-53.6,54.8-53.6,57.4-53.6L57.4-53.6z"/>
		<path d="M34.7-12.7c-2.4,0-4.2-1.6-4.3-3.7c-0.1-2.3,1.3-4.1,3.6-4.3c1.9-0.2,3.8-0.2,5.7-0.3c1.8-0.1,3.5-0.2,5.3-0.3
			c0.6,0,0.9-0.3,1.2-0.8c1-1.7,1.9-3.4,2.9-5c0.1-0.2,0.2-0.5,0.4-0.4c0.2,0,0.3,0.3,0.4,0.5c1.1,2.3,2.8,4,5.1,5.1
			c0.5,0.3,0.8,0.6,0.3,1.2c-1.4,2-2.8,4-4.4,5.9c-0.9,1-2.1,1.5-3.4,1.6c-3.4,0.2-6.9,0.3-10.3,0.5C36.4-12.8,35.4-12.8,34.7-12.7
			L34.7-12.7z"/>
		<path d="M63.6-61.5c0-4,3-7.1,7-7.1c4.2,0,7.1,3,7.2,7.1c0.1,3.9-3.2,7.1-7,7.1C66.7-54.4,63.6-57.5,63.6-61.5L63.6-61.5z"/>
		<path d="M78.2-33.1c-1.5,0-2.5-0.4-3.4-1c-1-0.7-2-1.5-2.9-2.2c-0.5-0.4-0.7-0.7-0.4-1.3c0.7-1.7,1.2-3.5,1.9-5.3
			c0.3-0.8,0.3-0.8,1.1-0.2c1.2,1,2.4,2.1,3.5,3.1c0.4,0.4,0.8,0.4,1.3,0.3c2.6-0.9,5.1-1.8,7.7-2.6c1.7-0.6,3.1-0.3,3.9,0.8
			c1.1,1.4,0.8,4-1.5,4.8c-3,1-6,2.1-9.1,3.1C79.5-33.4,78.7-33.1,78.2-33.1L78.2-33.1z"/>
	</g>
	<g id="Light-M" transform="matrix(1 0 0 1 1095.44 1126)">
		<path d="M57.7-101.9c4.7,0,9.4,0,14.1,0c2.8,0,4.2,1.4,4.2,4.2c0,2.3,0,4.5,0,6.8c0,2.3-1.5,3.7-3.8,3.7c-1.9,0-3.8,0.1-5.7,0
			c-1,0-1.5,0.3-1.4,1.4c0.1,1.7,0,3.5,0,5.2c0,0.9,0.4,1.3,1.3,1.5c7.5,1.4,14.3,4.4,20.3,9.1c0.8,0.7,1.3,0.6,2-0.2
			c1.1-1.2,2.3-2.4,3.5-3.5c1.7-1.6,3.7-1.6,5.3,0c1.7,1.6,3.3,3.2,4.9,4.9c1.7,1.8,1.7,3.8-0.1,5.6c-1.3,1.3-2.5,2.7-3.9,3.9
			c-0.9,0.8-0.8,1.3-0.3,2.3c13.8,22.8,6.3,52-16.8,65.5c-29.1,17-66.8-1.7-70.8-35.2C9.4-37.6,11.5-47.7,17.1-57
			c0.7-1.1,0.6-1.7-0.4-2.5c-1.4-1.2-2.6-2.5-3.9-3.9c-1.6-1.7-1.6-3.7,0-5.4c1.6-1.7,3.3-3.4,5-5c1.7-1.6,3.6-1.5,5.3,0
			c1.3,1.2,2.5,2.4,3.7,3.6c0.5,0.5,0.9,0.7,1.6,0.2c6.1-4.8,13.1-7.9,20.7-9.3c0.7-0.1,1-0.5,1-1.2c0-1.9,0-3.8,0-5.7
			c0-0.8-0.3-1.1-1.2-1.1c-1.9,0-3.9,0-5.8,0c-2.4,0-3.8-1.5-3.8-3.9c0-2.3,0-4.6,0-7c0-2.5,1.5-3.9,4-3.9
			C48.2-101.9,52.9-101.9,57.7-101.9L57.7-101.9z M97.7-32.7c-0.1-22.1-18-40-40.1-39.9c-21.9,0-40,18.2-39.8,40.1
			c0.2,23.6,19.9,40.3,41,39.9C79.8,6.9,97.7-11.1,97.7-32.7L97.7-32.7z"/>
		<path d="M54.3-52c1.6,0.1,3.9-0.2,6.3,0.1c1.7,0.2,3.4,0.6,4.9,1.7c2.5,1.9,3.4,4.9,2.3,7.9c-1.5,4.2-3,8.4-4.6,12.5
			c-0.4,1.1-0.4,1.1,0.6,1.7c2.1,1.3,4.1,2.7,6.2,4c2.2,1.3,3,3.4,2.8,5.8c-0.2,3.9-0.1,7.7-0.2,11.6c0,1.1,0.1,2.3-0.1,3.4
			c-0.3,1.5-1.4,3-3.1,3.2C67.5,0.3,66-0.4,65.1-2c-0.4-0.7-0.5-1.4-0.5-2.2c0-4.2,0-8.4,0.2-12.6c0-0.9-0.3-1.2-1.1-1.5
			c-3.7-1.4-7.4-2.8-10.9-4.7c-2.3-1.2-3.6-3.4-4-6c-0.3-1.9,0.2-3.6,0.9-5.4c1.4-3.6,2.8-7.3,4.2-11c0.3-0.8,0.2-0.9-0.6-0.9
			c-1.5,0-3,0-4.5-0.2c-0.6-0.1-0.9,0.2-1.3,0.6c-1.6,2.2-3.3,4.4-5,6.5c-0.2,0.3-0.4,0.7-0.7,1c-1.2,1.4-3.1,1.2-4,0.4
			c-1.3-1.1-1.6-2.9-0.6-4.2c2.3-2.8,4.6-5.6,7-8.4c0.9-1.1,2.2-1.6,3.7-1.6C49.8-52,51.7-52,54.3-52L54.3-52z"/>
		<path d="M31.5-11.1c-2.4,0-4.2-1.6-4.3-3.7c-0.1-2.3,1.3-4.1,3.6-4.3c1.9-0.2,3.8-0.2,5.7-0.3c1.8-0.1,3.5-0.2,5.3-0.3
			c0.6,0,0.9-0.3,1.2-0.8c1-1.7,1.9-3.4,2.9-5c0.1-0.2,0.2-0.5,0.4-0.4c0.2,0,0.3,0.3,0.4,0.5c1.1,2.3,2.8,4,5.1,5.1
			c0.5,0.3,0.8,0.6,0.3,1.2c-1.4,2-2.8,4-4.4,5.9c-0.9,1-2.1,1.5-3.4,1.6c-3.4,0.2-6.9,0.3-10.3,0.5C33.2-11.2,32.3-11.2,31.5-11.1
			L31.5-11.1z"/>
		<path d="M60.5-59.8c0-4,3-7.1,7-7.1c4.2,0,7.1,3,7.2,7.1c0.1,3.9-3.2,7.1-7,7.1C63.6-52.8,60.5-55.8,60.5-59.8L60.5-59.8z"/>
		<path d="M75.1-31.5c-1.5,0-2.5-0.4-3.4-1c-1-0.7-2-1.5-2.9-2.2c-0.5-0.4-0.7-0.7-0.4-1.3c0.7-1.7,1.2-3.5,1.9-5.3
			c0.3-0.8,0.3-0.8,1.1-0.2c1.2,1,2.4,2.1,3.5,3.1c0.4,0.4,0.8,0.4,1.3,0.3c2.6-0.9,5.1-1.8,7.7-2.6c1.7-0.6,3.1-0.3,3.9,0.8
			c1.1,1.4,0.8,4-1.5,4.8c-3,1-6,2.1-9.1,3.1C76.4-31.8,75.6-31.4,75.1-31.5L75.1-31.5z"/>
	</g>
	<g id="Thin-M" transform="matrix(1 0 0 1 799.828 1126)">
		<path d="M56.6-103.5c4.7,0,9.4,0,14.1,0c2.8,0,4.2,1.4,4.2,4.2c0,2.3,0,4.5,0,6.8c0,2.3-1.5,3.7-3.8,3.7c-1.9,0-3.8,0.1-5.7,0
			c-1,0-1.5,0.3-1.4,1.4c0.1,1.7,0,3.5,0,5.2c0,0.9,0.4,1.3,1.3,1.5c7.5,1.4,14.3,4.4,20.3,9.1c0.8,0.7,1.3,0.6,2-0.2
			c1.1-1.2,2.3-2.4,3.5-3.5c1.7-1.6,3.7-1.6,5.3,0c1.7,1.6,3.3,3.2,4.9,4.9c1.7,1.8,1.7,3.8-0.1,5.6c-1.3,1.3-2.5,2.7-3.9,3.9
			c-0.9,0.8-0.8,1.3-0.3,2.3c13.8,22.8,6.3,52-16.8,65.5c-29.1,17-66.8-1.7-70.8-35.2C8.3-39.2,10.4-49.3,16-58.6
			c0.7-1.1,0.6-1.7-0.4-2.5c-1.4-1.2-2.6-2.5-3.9-3.9c-1.6-1.7-1.6-3.7,0-5.4c1.6-1.7,3.3-3.4,5-5c1.7-1.6,3.6-1.5,5.3,0
			c1.3,1.2,2.5,2.4,3.7,3.6c0.5,0.5,0.9,0.7,1.6,0.2c6.1-4.8,13.1-7.9,20.7-9.3c0.7-0.1,1-0.5,1-1.2c0-1.9,0-3.8,0-5.7
			c0-0.8-0.3-1.1-1.2-1.1c-1.9,0-3.9,0-5.8,0c-2.4,0-3.8-1.5-3.8-3.9c0-2.3,0-4.6,0-7c0-2.5,1.5-3.9,4-3.9
			C47.1-103.5,51.8-103.5,56.6-103.5L56.6-103.5z M96.6-34.3c-0.1-22.1-18-40-40.1-39.9c-21.9,0-40,18.2-39.8,40.1
			c0.2,23.6,19.9,40.3,41,39.9C78.7,5.3,96.6-12.7,96.6-34.3L96.6-34.3z"/>
		<path d="M53.2-53.6c1.6,0.1,3.9-0.2,6.3,0.1c1.7,0.2,3.4,0.6,4.9,1.7c2.5,1.9,3.4,4.9,2.3,7.9c-1.5,4.2-3,8.4-4.6,12.5
			c-0.4,1.1-0.4,1.1,0.6,1.7c2.1,1.3,4.1,2.7,6.2,4c2.2,1.3,3,3.4,2.8,5.8c-0.2,3.9-0.1,7.7-0.2,11.6c0,1.1,0.1,2.3-0.1,3.4
			c-0.3,1.5-1.4,3-3.1,3.2c-1.9,0.3-3.4-0.4-4.3-1.9c-0.4-0.7-0.5-1.4-0.5-2.2c0-4.2,0-8.4,0.2-12.6c0-0.9-0.3-1.2-1.1-1.5
			c-3.7-1.4-7.4-2.8-10.9-4.7c-2.3-1.2-3.6-3.4-4-6c-0.3-1.9,0.2-3.6,0.9-5.4c1.4-3.6,2.8-7.3,4.2-11c0.3-0.8,0.2-0.9-0.6-0.9
			c-1.5,0-3,0-4.5-0.2c-0.6-0.1-0.9,0.2-1.3,0.6c-1.6,2.2-3.3,4.4-5,6.5c-0.2,0.3-0.4,0.7-0.7,1c-1.2,1.4-3.1,1.2-4,0.4
			c-1.3-1.1-1.6-2.9-0.6-4.2c2.3-2.8,4.6-5.6,7-8.4c0.9-1.1,2.2-1.6,3.7-1.6C48.7-53.6,50.6-53.6,53.2-53.6L53.2-53.6z"/>
		<path d="M30.4-12.7c-2.4,0-4.2-1.6-4.3-3.7c-0.1-2.3,1.3-4.1,3.6-4.3c1.9-0.2,3.8-0.2,5.7-0.3c1.8-0.1,3.5-0.2,5.3-0.3
			c0.6,0,0.9-0.3,1.2-0.8c1-1.7,1.9-3.4,2.9-5c0.1-0.2,0.2-0.5,0.4-0.4c0.2,0,0.3,0.3,0.4,0.5c1.1,2.3,2.8,4,5.1,5.1
			c0.5,0.3,0.8,0.6,0.3,1.2c-1.4,2-2.8,4-4.4,5.9c-0.9,1-2.1,1.5-3.4,1.6c-3.4,0.2-6.9,0.3-10.3,0.5C32.1-12.8,31.2-12.8,30.4-12.7
			L30.4-12.7z"/>
		<path d="M59.4-61.5c0-4,3-7.1,7-7.1c4.2,0,7.1,3,7.2,7.1c0.1,3.9-3.2,7.1-7,7.1C62.5-54.4,59.4-57.5,59.4-61.5L59.4-61.5z"/>
		<path d="M74-33.1c-1.5,0-2.5-0.4-3.4-1c-1-0.7-2-1.5-2.9-2.2c-0.5-0.4-0.7-0.7-0.4-1.3c0.7-1.7,1.2-3.5,1.9-5.3
			c0.3-0.8,0.3-0.8,1.1-0.2c1.2,1,2.4,2.1,3.5,3.1c0.4,0.4,0.8,0.4,1.3,0.3c2.6-0.9,5.1-1.8,7.7-2.6c1.7-0.6,3.1-0.3,3.9,0.8
			c1.1,1.4,0.8,4-1.5,4.8c-3,1-6,2.1-9.1,3.1C75.3-33.4,74.5-33.1,74-33.1L74-33.1z"/>
	</g>
	<g id="Ultralight-M" transform="matrix(1 0 0 1 503.679 1126)">
		<path d="M56-103.5c4.7,0,9.4,0,14.1,0c2.8,0,4.2,1.4,4.2,4.2c0,2.3,0,4.5,0,6.8c0,2.3-1.5,3.7-3.8,3.7c-1.9,0-3.8,0.1-5.7,0
			c-1,0-1.5,0.3-1.4,1.4c0.1,1.7,0,3.5,0,5.2c0,0.9,0.4,1.3,1.3,1.5c7.5,1.4,14.3,4.4,20.3,9.1c0.8,0.7,1.3,0.6,2-0.2
			c1.1-1.2,2.3-2.4,3.5-3.5c1.7-1.6,3.7-1.6,5.3,0c1.7,1.6,3.3,3.2,4.9,4.9c1.7,1.8,1.7,3.8-0.1,5.6c-1.3,1.3-2.5,2.7-3.9,3.9
			c-0.9,0.8-0.8,1.3-0.3,2.3c13.8,22.8,6.3,52-16.8,65.5C50.6,23.8,13,5.1,9-28.4c-1.3-10.8,0.8-20.9,6.5-30.2
			c0.7-1.1,0.6-1.7-0.4-2.5c-1.4-1.2-2.6-2.5-3.9-3.9c-1.6-1.7-1.6-3.7,0-5.4c1.6-1.7,3.3-3.4,5-5c1.7-1.6,3.6-1.5,5.3,0
			c1.3,1.2,2.5,2.4,3.7,3.6c0.5,0.5,0.9,0.7,1.6,0.2c6.1-4.8,13.1-7.9,20.7-9.3c0.7-0.1,1-0.5,1-1.2c0-1.9,0-3.8,0-5.7
			c0-0.8-0.3-1.1-1.2-1.1c-1.9,0-3.9,0-5.8,0c-2.4,0-3.8-1.5-3.8-3.9c0-2.3,0-4.6,0-7c0-2.5,1.5-3.9,4-3.9
			C46.5-103.5,51.3-103.5,56-103.5L56-103.5z M96-34.3c-0.1-22.1-18-40-40.1-39.9c-21.9,0-40,18.2-39.8,40.1
			c0.2,23.6,19.9,40.3,41,39.9C78.2,5.3,96.1-12.7,96-34.3L96-34.3z"/>
		<path d="M52.6-53.6c1.6,0.1,3.9-0.2,6.3,0.1c1.7,0.2,3.4,0.6,4.9,1.7c2.5,1.9,3.4,4.9,2.3,7.9c-1.5,4.2-3,8.4-4.6,12.5
			c-0.4,1.1-0.4,1.1,0.6,1.7c2.1,1.3,4.1,2.7,6.2,4c2.2,1.3,3,3.4,2.8,5.8C70.9-16,71.1-12.1,71-8.3c0,1.1,0.1,2.3-0.1,3.4
			c-0.3,1.5-1.4,3-3.1,3.2c-1.9,0.3-3.4-0.4-4.3-1.9C63-4.2,63-5,63-5.7c0-4.2,0-8.4,0.2-12.6c0-0.9-0.3-1.2-1.1-1.5
			c-3.7-1.4-7.4-2.8-10.9-4.7c-2.3-1.2-3.6-3.4-4-6c-0.3-1.9,0.2-3.6,0.9-5.4c1.4-3.6,2.8-7.3,4.2-11c0.3-0.8,0.2-0.9-0.6-0.9
			c-1.5,0-3,0-4.5-0.2c-0.6-0.1-0.9,0.2-1.3,0.6c-1.6,2.2-3.3,4.4-5,6.5c-0.2,0.3-0.4,0.7-0.7,1c-1.2,1.4-3.1,1.2-4,0.4
			c-1.3-1.1-1.6-2.9-0.6-4.2c2.3-2.8,4.6-5.6,7-8.4c0.9-1.1,2.2-1.6,3.7-1.6C48.1-53.6,50-53.6,52.6-53.6L52.6-53.6z"/>
		<path d="M29.9-12.7c-2.4,0-4.2-1.6-4.3-3.7c-0.1-2.3,1.3-4.1,3.6-4.3c1.9-0.2,3.8-0.2,5.7-0.3c1.8-0.1,3.5-0.2,5.3-0.3
			c0.6,0,0.9-0.3,1.2-0.8c1-1.7,1.9-3.4,2.9-5c0.1-0.2,0.2-0.5,0.4-0.4c0.2,0,0.3,0.3,0.4,0.5c1.1,2.3,2.8,4,5.1,5.1
			c0.5,0.3,0.8,0.6,0.3,1.2c-1.4,2-2.8,4-4.4,5.9c-0.9,1-2.1,1.5-3.4,1.6c-3.4,0.2-6.9,0.3-10.3,0.5C31.6-12.8,30.7-12.8,29.9-12.7
			L29.9-12.7z"/>
		<path d="M58.8-61.5c0-4,3-7.1,7-7.1c4.2,0,7.1,3,7.2,7.1c0.1,3.9-3.2,7.1-7,7.1C61.9-54.4,58.8-57.5,58.8-61.5L58.8-61.5z"/>
		<path d="M73.4-33.1c-1.5,0-2.5-0.4-3.4-1c-1-0.7-2-1.5-2.9-2.2c-0.5-0.4-0.7-0.7-0.4-1.3c0.7-1.7,1.2-3.5,1.9-5.3
			c0.3-0.8,0.3-0.8,1.1-0.2c1.2,1,2.4,2.1,3.5,3.1c0.4,0.4,0.8,0.4,1.3,0.3c2.6-0.9,5.1-1.8,7.7-2.6c1.7-0.6,3.1-0.3,3.9,0.8
			c1.1,1.4,0.8,4-1.5,4.8c-3,1-6,2.1-9.1,3.1C74.7-33.4,73.9-33.1,73.4-33.1L73.4-33.1z"/>
	</g>
	<g id="Black-S" transform="matrix(1 0 0 1 2884.57 696)">
		<path d="M48.8-89c3.9,0,7.7,0,11.6,0c2.3,0,3.4,1.1,3.5,3.4c0,1.9,0,3.7,0,5.6c0,1.9-1.2,3-3.1,3.1c-1.6,0-3.1,0-4.7,0
			c-0.8,0-1.2,0.2-1.2,1.1c0.1,1.4,0,2.8,0,4.3c0,0.8,0.3,1.1,1.1,1.2c6.2,1.1,11.8,3.6,16.7,7.5c0.7,0.5,1.1,0.5,1.6-0.1
			c0.9-1,1.9-2,2.9-2.9c1.4-1.3,3-1.3,4.4,0c1.4,1.3,2.7,2.7,4.1,4c1.4,1.5,1.4,3.1-0.1,4.6c-1,1.1-2.1,2.2-3.2,3.2
			c-0.7,0.6-0.7,1.1-0.2,1.9c11.3,18.8,5.2,42.9-13.8,54c-24,14-55-1.4-58.3-29c-1.1-8.9,0.7-17.2,5.3-24.9c0.6-0.9,0.5-1.4-0.3-2.1
			c-1.1-1-2.2-2.1-3.2-3.2c-1.3-1.4-1.3-3,0-4.4c1.3-1.4,2.7-2.8,4.1-4.1c1.4-1.3,3-1.3,4.4,0c1,1,2,2,3,3c0.4,0.5,0.7,0.6,1.3,0.2
			c5.1-3.9,10.8-6.5,17.1-7.6c0.6-0.1,0.8-0.4,0.8-1c0-1.6,0-3.1,0-4.7c0-0.7-0.3-0.9-0.9-0.9c-1.6,0-3.2,0-4.8,0
			c-2,0-3.1-1.2-3.2-3.2c0-1.9,0-3.8,0-5.7c0-2,1.2-3.2,3.3-3.2C41-89,44.9-89,48.8-89L48.8-89z M81.8-32
			c0-18.2-14.9-32.9-33.1-32.9c-18.1,0-33,15-32.8,33C16.1-12.5,32.3,1.3,49.7,0.9C67.1,0.6,81.8-14.3,81.8-32L81.8-32z"/>
		<path d="M46-47.9c1.3,0,3.3-0.1,5.2,0.1c1.4,0.2,2.8,0.5,4,1.4c2.1,1.6,2.8,4.1,1.9,6.5c-1.2,3.4-2.5,6.9-3.8,10.3
			c-0.3,0.9-0.3,0.9,0.5,1.4c1.7,1.1,3.4,2.2,5.1,3.3c1.8,1.1,2.5,2.8,2.3,4.8c-0.2,3.2,0,6.4-0.1,9.5c0,0.9,0.1,1.9-0.1,2.8
			c-0.2,1.2-1.2,2.4-2.6,2.6c-1.5,0.2-2.8-0.3-3.5-1.6c-0.3-0.6-0.4-1.2-0.4-1.8c0-3.5,0-6.9,0.2-10.4c0-0.7-0.3-1-0.9-1.3
			c-3-1.2-6.1-2.3-8.9-3.8c-1.9-1-3-2.8-3.3-4.9c-0.3-1.5,0.1-3,0.7-4.4c1.2-3,2.3-6,3.4-9c0.2-0.7,0.2-0.7-0.5-0.7
			c-1.2,0-2.5,0-3.7-0.1c-0.5,0-0.8,0.1-1,0.5c-1.4,1.8-2.7,3.6-4.1,5.4c-0.2,0.3-0.4,0.6-0.6,0.8c-0.9,1.1-2.6,0.9-3.3,0.3
			c-1.1-0.9-1.3-2.3-0.5-3.4c1.9-2.3,3.8-4.6,5.8-6.9c0.8-0.9,1.8-1.3,3-1.3C42.3-47.9,43.8-47.9,46-47.9L46-47.9z"/>
		<path d="M27.3-14.2c-1.9,0-3.4-1.3-3.5-3.1c-0.1-1.9,1.1-3.4,3-3.6c1.6-0.1,3.1-0.2,4.7-0.3c1.4-0.1,2.9-0.2,4.3-0.2
			c0.5,0,0.8-0.2,1-0.6c0.8-1.4,1.6-2.8,2.4-4.2c0.1-0.1,0.1-0.4,0.3-0.4c0.2,0,0.3,0.2,0.3,0.4c0.9,1.9,2.3,3.3,4.2,4.2
			c0.4,0.2,0.6,0.5,0.3,1c-1.2,1.6-2.3,3.3-3.6,4.8c-0.7,0.8-1.7,1.2-2.8,1.3c-2.8,0.1-5.6,0.3-8.5,0.4
			C28.7-14.3,27.9-14.3,27.3-14.2L27.3-14.2z"/>
		<path d="M51.1-54.4c0-3.3,2.5-5.9,5.7-5.9c3.4,0,5.8,2.5,5.9,5.9c0.1,3.2-2.6,5.8-5.8,5.8C53.7-48.6,51.1-51.1,51.1-54.4
			L51.1-54.4z"/>
		<path d="M63.2-31c-1.2,0-2-0.3-2.8-0.8c-0.8-0.6-1.6-1.2-2.4-1.8c-0.4-0.3-0.6-0.6-0.4-1.1c0.5-1.4,1-2.9,1.6-4.3
			c0.3-0.7,0.3-0.7,0.9-0.2c1,0.8,1.9,1.7,2.9,2.6c0.3,0.3,0.6,0.4,1.1,0.2c2.1-0.7,4.2-1.4,6.3-2.2c1.4-0.5,2.5-0.2,3.2,0.7
			c0.9,1.2,0.7,3.3-1.2,4c-2.5,0.8-5,1.7-7.5,2.6C64.2-31.3,63.6-31,63.2-31L63.2-31z"/>
	</g>
	<g id="Heavy-S" transform="matrix(1 0 0 1 2588.47 696)">
		<path d="M48.2-91.9c3.9,0,7.7,0,11.6,0c2.3,0,3.4,1.1,3.5,3.4c0,1.9,0,3.7,0,5.6c0,1.9-1.2,3-3.1,3.1c-1.6,0-3.1,0-4.7,0
			c-0.8,0-1.2,0.2-1.2,1.1c0.1,1.4,0,2.8,0,4.3c0,0.8,0.3,1.1,1.1,1.2c6.2,1.1,11.8,3.6,16.7,7.5c0.7,0.5,1.1,0.5,1.6-0.1
			c0.9-1,1.9-2,2.9-2.9c1.4-1.3,3-1.3,4.4,0c1.4,1.3,2.7,2.7,4.1,4c1.4,1.5,1.4,3.1-0.1,4.6c-1,1.1-2.1,2.2-3.2,3.2
			c-0.7,0.6-0.7,1.1-0.2,1.9c11.3,18.8,5.2,42.9-13.8,54c-24,14-55-1.4-58.3-29c-1.1-8.9,0.7-17.2,5.3-24.9c0.6-0.9,0.5-1.4-0.3-2.1
			c-1.1-1-2.2-2.1-3.2-3.2c-1.3-1.4-1.3-3,0-4.4c1.3-1.4,2.7-2.8,4.1-4.1c1.4-1.3,3-1.3,4.4,0c1,1,2,2,3,3c0.4,0.5,0.7,0.6,1.3,0.2
			c5.1-3.9,10.8-6.5,17.1-7.6c0.6-0.1,0.8-0.4,0.8-1c0-1.6,0-3.1,0-4.7c0-0.7-0.3-0.9-0.9-0.9c-1.6,0-3.2,0-4.8,0
			c-2,0-3.1-1.2-3.2-3.2c0-1.9,0-3.8,0-5.7c0-2,1.2-3.2,3.3-3.2C40.4-91.9,44.3-91.9,48.2-91.9L48.2-91.9z M81.2-34.9
			c0-18.2-14.9-32.9-33.1-32.9c-18.1,0-33,15-32.8,33C15.5-15.3,31.7-1.6,49.1-1.9C66.5-2.3,81.2-17.1,81.2-34.9L81.2-34.9z"/>
		<path d="M45.4-50.8c1.3,0,3.3-0.1,5.2,0.1c1.4,0.2,2.8,0.5,4,1.4c2.1,1.6,2.8,4.1,1.9,6.5c-1.2,3.4-2.5,6.9-3.8,10.3
			c-0.3,0.9-0.3,0.9,0.5,1.4c1.7,1.1,3.4,2.2,5.1,3.3c1.8,1.1,2.5,2.8,2.3,4.8c-0.2,3.2,0,6.4-0.1,9.5c0,0.9,0.1,1.9-0.1,2.8
			c-0.2,1.2-1.2,2.4-2.6,2.6c-1.5,0.2-2.8-0.3-3.5-1.6c-0.3-0.6-0.4-1.2-0.4-1.8c0-3.5,0-6.9,0.2-10.4c0-0.7-0.3-1-0.9-1.3
			c-3-1.2-6.1-2.3-8.9-3.8c-1.9-1-3-2.8-3.3-4.9c-0.3-1.5,0.1-3,0.7-4.4c1.2-3,2.3-6,3.4-9c0.2-0.7,0.2-0.7-0.5-0.7
			c-1.2,0-2.5,0-3.7-0.1c-0.5,0-0.8,0.1-1,0.5c-1.4,1.8-2.7,3.6-4.1,5.4c-0.2,0.3-0.4,0.6-0.6,0.8c-0.9,1.1-2.6,0.9-3.3,0.3
			c-1.1-0.9-1.3-2.3-0.5-3.4c1.9-2.3,3.8-4.6,5.8-6.9c0.8-0.9,1.8-1.3,3-1.3C41.7-50.8,43.3-50.8,45.4-50.8L45.4-50.8z"/>
		<path d="M26.7-17.1c-1.9,0-3.4-1.3-3.5-3.1c-0.1-1.9,1.1-3.4,3-3.6c1.6-0.1,3.1-0.2,4.7-0.3c1.4-0.1,2.9-0.2,4.3-0.2
			c0.5,0,0.8-0.2,1-0.6c0.8-1.4,1.6-2.8,2.4-4.2c0.1-0.1,0.1-0.4,0.3-0.4c0.2,0,0.3,0.2,0.3,0.4c0.9,1.9,2.3,3.3,4.2,4.2
			c0.4,0.2,0.6,0.5,0.3,1c-1.2,1.6-2.3,3.3-3.6,4.8c-0.7,0.8-1.7,1.2-2.8,1.3c-2.8,0.1-5.6,0.3-8.5,0.4
			C28.1-17.2,27.3-17.2,26.7-17.1L26.7-17.1z"/>
		<path d="M50.5-57.3c0-3.3,2.5-5.9,5.7-5.9c3.4,0,5.8,2.5,5.9,5.9c0.1,3.2-2.6,5.8-5.8,5.8C53.1-51.4,50.5-54,50.5-57.3L50.5-57.3z
			"/>
		<path d="M62.6-33.9c-1.2,0-2-0.3-2.8-0.8c-0.8-0.6-1.6-1.2-2.4-1.8c-0.4-0.3-0.6-0.6-0.4-1.1c0.5-1.4,1-2.9,1.6-4.3
			c0.3-0.7,0.3-0.7,0.9-0.2c1,0.8,1.9,1.7,2.9,2.6c0.3,0.3,0.6,0.4,1.1,0.2c2.1-0.7,4.2-1.4,6.3-2.2c1.4-0.5,2.5-0.2,3.2,0.7
			c0.9,1.2,0.7,3.3-1.2,4c-2.5,0.8-5,1.7-7.5,2.6C63.6-34.2,63-33.9,62.6-33.9L62.6-33.9z"/>
	</g>
	<g id="Bold-S" transform="matrix(1 0 0 1 2292.43 696)">
		<path d="M47.5-90.4c3.9,0,7.7,0,11.6,0c2.3,0,3.4,1.1,3.5,3.4c0,1.9,0,3.7,0,5.6c0,1.9-1.2,3-3.1,3.1c-1.6,0-3.1,0-4.7,0
			c-0.8,0-1.2,0.2-1.2,1.1c0.1,1.4,0,2.8,0,4.3c0,0.8,0.3,1.1,1.1,1.2c6.2,1.1,11.8,3.6,16.7,7.5c0.7,0.5,1.1,0.5,1.6-0.1
			c0.9-1,1.9-2,2.9-2.9c1.4-1.3,3-1.3,4.4,0c1.4,1.3,2.7,2.7,4.1,4c1.4,1.5,1.4,3.1-0.1,4.6c-1,1.1-2.1,2.2-3.2,3.2
			c-0.7,0.6-0.7,1.1-0.2,1.9c11.3,18.8,5.2,42.9-13.8,54c-24,14-55-1.4-58.3-29c-1.1-8.9,0.7-17.2,5.3-24.9c0.6-0.9,0.5-1.4-0.3-2.1
			c-1.1-1-2.2-2.1-3.2-3.2c-1.3-1.4-1.3-3,0-4.4c1.3-1.4,2.7-2.8,4.1-4.1c1.4-1.3,3-1.3,4.4,0c1,1,2,2,3,3c0.4,0.5,0.7,0.6,1.3,0.2
			c5.1-3.9,10.8-6.5,17.1-7.6c0.6-0.1,0.8-0.4,0.8-1c0-1.6,0-3.1,0-4.7c0-0.7-0.3-0.9-0.9-0.9c-1.6,0-3.2,0-4.8,0
			c-2,0-3.1-1.2-3.2-3.2c0-1.9,0-3.8,0-5.7c0-2,1.2-3.2,3.3-3.2C39.7-90.4,43.6-90.4,47.5-90.4L47.5-90.4z M80.5-33.4
			c0-18.2-14.9-32.9-33.1-32.9c-18.1,0-33,15-32.8,33C14.8-13.8,31-0.1,48.4-0.4C65.8-0.8,80.5-15.6,80.5-33.4L80.5-33.4z"/>
		<path d="M44.7-49.3c1.3,0,3.3-0.1,5.2,0.1c1.4,0.2,2.8,0.5,4,1.4c2.1,1.6,2.8,4.1,1.9,6.5c-1.2,3.4-2.5,6.9-3.8,10.3
			c-0.3,0.9-0.3,0.9,0.5,1.4c1.7,1.1,3.4,2.2,5.1,3.3c1.8,1.1,2.5,2.8,2.3,4.8c-0.2,3.2,0,6.4-0.1,9.5c0,0.9,0.1,1.9-0.1,2.8
			c-0.2,1.2-1.2,2.4-2.6,2.6c-1.5,0.2-2.8-0.3-3.5-1.6c-0.3-0.6-0.4-1.2-0.4-1.8c0-3.5,0-6.9,0.2-10.4c0-0.7-0.3-1-0.9-1.3
			c-3-1.2-6.1-2.3-8.9-3.8c-1.9-1-3-2.8-3.3-4.9c-0.3-1.5,0.1-3,0.7-4.4c1.2-3,2.3-6,3.4-9c0.2-0.7,0.2-0.7-0.5-0.7
			c-1.2,0-2.5,0-3.7-0.1c-0.5,0-0.8,0.1-1,0.5c-1.4,1.8-2.7,3.6-4.1,5.4c-0.2,0.3-0.4,0.6-0.6,0.8c-0.9,1.1-2.6,0.9-3.3,0.3
			c-1.1-0.9-1.3-2.3-0.5-3.4c1.9-2.3,3.8-4.6,5.8-6.9c0.8-0.9,1.8-1.3,3-1.3C41.1-49.3,42.6-49.3,44.7-49.3L44.7-49.3z"/>
		<path d="M26-15.6c-1.9,0-3.4-1.3-3.5-3.1c-0.1-1.9,1.1-3.4,3-3.6c1.6-0.1,3.1-0.2,4.7-0.3c1.4-0.1,2.9-0.2,4.3-0.2
			c0.5,0,0.8-0.2,1-0.6c0.8-1.4,1.6-2.8,2.4-4.2c0.1-0.1,0.1-0.4,0.3-0.4c0.2,0,0.3,0.2,0.3,0.4c0.9,1.9,2.3,3.3,4.2,4.2
			c0.4,0.2,0.6,0.5,0.3,1c-1.2,1.6-2.3,3.3-3.6,4.8c-0.7,0.8-1.7,1.2-2.8,1.3c-2.8,0.1-5.6,0.3-8.5,0.4C27.4-15.6,26.7-15.6,26-15.6
			L26-15.6z"/>
		<path d="M49.8-55.8c0-3.3,2.5-5.9,5.7-5.9c3.4,0,5.8,2.5,5.9,5.9c0.1,3.2-2.6,5.8-5.8,5.8C52.4-49.9,49.9-52.4,49.8-55.8
			L49.8-55.8z"/>
		<path d="M61.9-32.4c-1.2,0-2-0.3-2.8-0.8c-0.8-0.6-1.6-1.2-2.4-1.8c-0.4-0.3-0.6-0.6-0.4-1.1c0.5-1.4,1-2.9,1.6-4.3
			c0.3-0.7,0.3-0.7,0.9-0.2c1,0.8,1.9,1.7,2.9,2.6c0.3,0.3,0.6,0.4,1.1,0.2c2.1-0.7,4.2-1.4,6.3-2.2c1.4-0.5,2.5-0.2,3.2,0.7
			c0.9,1.2,0.7,3.3-1.2,4c-2.5,0.8-5,1.7-7.5,2.6C62.9-32.6,62.3-32.4,61.9-32.4L61.9-32.4z"/>
	</g>
	<g id="Semibold-S" transform="matrix(1 0 0 1 1996.19 696)">
		<path d="M47-90.4c3.9,0,7.7,0,11.6,0c2.3,0,3.4,1.1,3.5,3.4c0,1.9,0,3.7,0,5.6c0,1.9-1.2,3-3.1,3.1c-1.6,0-3.1,0-4.7,0
			c-0.8,0-1.2,0.2-1.2,1.1c0.1,1.4,0,2.8,0,4.3c0,0.8,0.3,1.1,1.1,1.2c6.2,1.1,11.8,3.6,16.7,7.5c0.7,0.5,1.1,0.5,1.6-0.1
			c0.9-1,1.9-2,2.9-2.9c1.4-1.3,3-1.3,4.4,0c1.4,1.3,2.7,2.7,4.1,4c1.4,1.5,1.4,3.1-0.1,4.6c-1,1.1-2.1,2.2-3.2,3.2
			c-0.7,0.6-0.7,1.1-0.2,1.9c11.3,18.8,5.2,42.9-13.8,54c-24,14-55-1.4-58.3-29C7.3-37.4,9-45.7,13.7-53.4c0.6-0.9,0.5-1.4-0.3-2.1
			c-1.1-1-2.2-2.1-3.2-3.2c-1.3-1.4-1.3-3,0-4.4c1.3-1.4,2.7-2.8,4.1-4.1c1.4-1.3,3-1.3,4.4,0c1,1,2,2,3,3c0.4,0.5,0.7,0.6,1.3,0.2
			c5.1-3.9,10.8-6.5,17.1-7.6c0.6-0.1,0.8-0.4,0.8-1c0-1.6,0-3.1,0-4.7c0-0.7-0.3-0.9-0.9-0.9c-1.6,0-3.2,0-4.8,0
			c-2,0-3.1-1.2-3.2-3.2c0-1.9,0-3.8,0-5.7c0-2,1.2-3.2,3.3-3.2C39.2-90.4,43.1-90.4,47-90.4L47-90.4z M80-33.4
			C80-51.5,65.2-66.3,47-66.3c-18.1,0-33,15-32.8,33C14.3-13.8,30.5-0.1,47.9-0.4C65.3-0.8,80-15.6,80-33.4L80-33.4z"/>
		<path d="M44.3-49.3c1.3,0,3.3-0.1,5.2,0.1c1.4,0.2,2.8,0.5,4,1.4c2.1,1.6,2.8,4.1,1.9,6.5c-1.2,3.4-2.5,6.9-3.8,10.3
			c-0.3,0.9-0.3,0.9,0.5,1.4c1.7,1.1,3.4,2.2,5.1,3.3c1.8,1.1,2.5,2.8,2.3,4.8c-0.2,3.2,0,6.4-0.1,9.5c0,0.9,0.1,1.9-0.1,2.8
			c-0.2,1.2-1.2,2.4-2.6,2.6c-1.5,0.2-2.8-0.3-3.5-1.6c-0.3-0.6-0.4-1.2-0.4-1.8c0-3.5,0-6.9,0.2-10.4c0-0.7-0.3-1-0.9-1.3
			c-3-1.2-6.1-2.3-8.9-3.8c-1.9-1-3-2.8-3.3-4.9c-0.3-1.5,0.1-3,0.7-4.4c1.2-3,2.3-6,3.4-9c0.2-0.7,0.2-0.7-0.5-0.7
			c-1.2,0-2.5,0-3.7-0.1c-0.5,0-0.8,0.1-1,0.5c-1.4,1.8-2.7,3.6-4.1,5.4c-0.2,0.3-0.4,0.6-0.6,0.8c-0.9,1.1-2.6,0.9-3.3,0.3
			c-1.1-0.9-1.3-2.3-0.5-3.4c1.9-2.3,3.8-4.6,5.8-6.9c0.8-0.9,1.8-1.3,3-1.3C40.6-49.3,42.1-49.3,44.3-49.3L44.3-49.3z"/>
		<path d="M25.5-15.6c-1.9,0-3.4-1.3-3.5-3.1c-0.1-1.9,1.1-3.4,3-3.6c1.6-0.1,3.1-0.2,4.7-0.3c1.4-0.1,2.9-0.2,4.3-0.2
			c0.5,0,0.8-0.2,1-0.6c0.8-1.4,1.6-2.8,2.4-4.2c0.1-0.1,0.1-0.4,0.3-0.4c0.2,0,0.3,0.2,0.3,0.4c0.9,1.9,2.3,3.3,4.2,4.2
			c0.4,0.2,0.6,0.5,0.3,1c-1.2,1.6-2.3,3.3-3.6,4.8c-0.7,0.8-1.7,1.2-2.8,1.3c-2.8,0.1-5.6,0.3-8.5,0.4
			C26.9-15.6,26.2-15.6,25.5-15.6L25.5-15.6z"/>
		<path d="M49.4-55.8c0-3.3,2.5-5.9,5.7-5.9c3.4,0,5.8,2.5,5.9,5.9c0.1,3.2-2.6,5.8-5.8,5.8C51.9-49.9,49.4-52.4,49.4-55.8
			L49.4-55.8z"/>
		<path d="M61.4-32.4c-1.2,0-2-0.3-2.8-0.8c-0.8-0.6-1.6-1.2-2.4-1.8c-0.4-0.3-0.6-0.6-0.4-1.1c0.5-1.4,1-2.9,1.6-4.3
			c0.3-0.7,0.3-0.7,0.9-0.2c1,0.8,1.9,1.7,2.9,2.6c0.3,0.3,0.6,0.4,1.1,0.2c2.1-0.7,4.2-1.4,6.3-2.2c1.4-0.5,2.5-0.2,3.2,0.7
			c0.9,1.2,0.7,3.3-1.2,4c-2.5,0.8-5,1.7-7.5,2.6C62.4-32.6,61.8-32.4,61.4-32.4L61.4-32.4z"/>
	</g>
	<g id="Medium-S" transform="matrix(1 0 0 1 1699.83 696)">
		<path d="M46.7-90.9c3.9,0,7.7,0,11.6,0c2.3,0,3.4,1.1,3.5,3.4c0,1.9,0,3.7,0,5.6c0,1.9-1.2,3-3.1,3.1c-1.6,0-3.1,0-4.7,0
			c-0.8,0-1.2,0.2-1.2,1.1c0.1,1.4,0,2.8,0,4.3c0,0.8,0.3,1.1,1.1,1.2c6.2,1.1,11.8,3.6,16.7,7.5c0.7,0.5,1.1,0.5,1.6-0.1
			c0.9-1,1.9-2,2.9-2.9c1.4-1.3,3-1.3,4.4,0c1.4,1.3,2.7,2.7,4.1,4c1.4,1.5,1.4,3.1-0.1,4.6c-1,1.1-2.1,2.2-3.2,3.2
			c-0.7,0.6-0.7,1.1-0.2,1.9c11.3,18.8,5.2,42.9-13.8,54c-24,14-55-1.4-58.3-29c-1.1-8.9,0.7-17.2,5.3-24.9c0.6-0.9,0.5-1.4-0.3-2.1
			c-1.1-1-2.2-2.1-3.2-3.2c-1.3-1.4-1.3-3,0-4.4c1.3-1.4,2.7-2.8,4.1-4.1c1.4-1.3,3-1.3,4.4,0c1,1,2,2,3,3c0.4,0.5,0.7,0.6,1.3,0.2
			c5.1-3.9,10.8-6.5,17.1-7.6c0.6-0.1,0.8-0.4,0.8-1c0-1.6,0-3.1,0-4.7c0-0.7-0.3-0.9-0.9-0.9c-1.6,0-3.2,0-4.8,0
			c-2,0-3.1-1.2-3.2-3.2c0-1.9,0-3.8,0-5.7c0-2,1.2-3.2,3.3-3.2C38.9-90.9,42.8-90.9,46.7-90.9L46.7-90.9z M79.7-33.8
			c0-18.2-14.9-32.9-33.1-32.9c-18.1,0-33,15-32.8,33C14-14.3,30.2-0.5,47.6-0.9C65-1.2,79.7-16.1,79.7-33.8L79.7-33.8z"/>
		<path d="M43.9-49.7c1.3,0,3.3-0.1,5.2,0.1c1.4,0.2,2.8,0.5,4,1.4c2.1,1.6,2.8,4.1,1.9,6.5c-1.2,3.4-2.5,6.9-3.8,10.3
			C51-30.5,51-30.5,51.8-30c1.7,1.1,3.4,2.2,5.1,3.3c1.8,1.1,2.5,2.8,2.3,4.8c-0.2,3.2,0,6.4-0.1,9.5c0,0.9,0.1,1.9-0.1,2.8
			c-0.2,1.2-1.2,2.4-2.6,2.6c-1.5,0.2-2.8-0.3-3.5-1.6c-0.3-0.6-0.4-1.2-0.4-1.8c0-3.5,0-6.9,0.2-10.4c0-0.7-0.3-1-0.9-1.3
			c-3-1.2-6.1-2.3-8.9-3.8c-1.9-1-3-2.8-3.3-4.9c-0.3-1.5,0.1-3,0.7-4.4c1.2-3,2.3-6,3.4-9c0.2-0.7,0.2-0.7-0.5-0.7
			c-1.2,0-2.5,0-3.7-0.1c-0.5,0-0.8,0.1-1,0.5c-1.4,1.8-2.7,3.6-4.1,5.4c-0.2,0.3-0.4,0.6-0.6,0.8c-0.9,1.1-2.6,0.9-3.3,0.3
			c-1.1-0.9-1.3-2.3-0.5-3.4c1.9-2.3,3.8-4.6,5.8-6.9c0.8-0.9,1.8-1.3,3-1.3C40.2-49.8,41.7-49.7,43.9-49.7L43.9-49.7z"/>
		<path d="M25.2-16c-1.9,0-3.4-1.3-3.5-3.1c-0.1-1.9,1.1-3.4,3-3.6c1.6-0.1,3.1-0.2,4.7-0.3c1.4-0.1,2.9-0.2,4.3-0.2
			c0.5,0,0.8-0.2,1-0.6c0.8-1.4,1.6-2.8,2.4-4.2c0.1-0.1,0.1-0.4,0.3-0.4c0.2,0,0.3,0.2,0.3,0.4c0.9,1.9,2.3,3.3,4.2,4.2
			c0.4,0.2,0.6,0.5,0.3,1c-1.2,1.6-2.3,3.3-3.6,4.8c-0.7,0.8-1.7,1.2-2.8,1.3c-2.8,0.1-5.6,0.3-8.5,0.4C26.6-16.1,25.8-16.1,25.2-16
			L25.2-16z"/>
		<path d="M49-56.2c0-3.3,2.5-5.9,5.7-5.9c3.4,0,5.8,2.5,5.9,5.9c0.1,3.2-2.6,5.8-5.8,5.8C51.6-50.4,49-52.9,49-56.2L49-56.2z"/>
		<path d="M61.1-32.9c-1.2,0-2-0.3-2.8-0.8c-0.8-0.6-1.6-1.2-2.4-1.8c-0.4-0.3-0.6-0.6-0.4-1.1c0.5-1.4,1-2.9,1.6-4.3
			c0.3-0.7,0.3-0.7,0.9-0.2c1,0.8,1.9,1.7,2.9,2.6c0.3,0.3,0.6,0.4,1.1,0.2c2.1-0.7,4.2-1.4,6.3-2.2c1.4-0.5,2.5-0.2,3.2,0.7
			c0.9,1.2,0.7,3.3-1.2,4c-2.5,0.8-5,1.7-7.5,2.6C62.1-33.1,61.5-32.8,61.1-32.9L61.1-32.9z"/>
	</g>
	<g id="Regular-S" transform="matrix(1 0 0 1 1403.58 696)">
		<path d="M46.2-90.4c3.9,0,7.7,0,11.6,0c2.3,0,3.4,1.1,3.5,3.4c0,1.9,0,3.7,0,5.6c0,1.9-1.2,3-3.1,3.1c-1.6,0-3.1,0-4.7,0
			c-0.8,0-1.2,0.2-1.2,1.1c0.1,1.4,0,2.8,0,4.3c0,0.8,0.3,1.1,1.1,1.2c6.2,1.1,11.8,3.6,16.7,7.5c0.7,0.5,1.1,0.5,1.6-0.1
			c0.9-1,1.9-2,2.9-2.9c1.4-1.3,3-1.3,4.4,0c1.4,1.3,2.7,2.7,4.1,4c1.4,1.5,1.4,3.1-0.1,4.6c-1,1.1-2.1,2.2-3.2,3.2
			c-0.7,0.6-0.7,1.1-0.2,1.9c11.3,18.8,5.2,42.9-13.8,54c-24,14-55-1.4-58.3-29c-1.1-8.9,0.7-17.2,5.3-24.9c0.6-0.9,0.5-1.4-0.3-2.1
			c-1.1-1-2.2-2.1-3.2-3.2c-1.3-1.4-1.3-3,0-4.4c1.3-1.4,2.7-2.8,4.1-4.1c1.4-1.3,3-1.3,4.4,0c1,1,2,2,3,3c0.4,0.5,0.7,0.6,1.3,0.2
			c5.1-3.9,10.8-6.5,17.1-7.6c0.6-0.1,0.8-0.4,0.8-1c0-1.6,0-3.1,0-4.7c0-0.7-0.3-0.9-0.9-0.9c-1.6,0-3.2,0-4.8,0
			c-2,0-3.1-1.2-3.2-3.2c0-1.9,0-3.8,0-5.7c0-2,1.2-3.2,3.3-3.2C38.4-90.4,42.3-90.4,46.2-90.4L46.2-90.4z M79.2-33.4
			c0-18.2-14.9-32.9-33.1-32.9c-18.1,0-33,15-32.8,33C13.5-13.8,29.7-0.1,47.1-0.4C64.5-0.8,79.2-15.6,79.2-33.4L79.2-33.4z"/>
		<path d="M43.4-49.3c1.3,0,3.3-0.1,5.2,0.1c1.4,0.2,2.8,0.5,4,1.4c2.1,1.6,2.8,4.1,1.9,6.5c-1.2,3.4-2.5,6.9-3.8,10.3
			c-0.3,0.9-0.3,0.9,0.5,1.4c1.7,1.1,3.4,2.2,5.1,3.3c1.8,1.1,2.5,2.8,2.3,4.8c-0.2,3.2,0,6.4-0.1,9.5c0,0.9,0.1,1.9-0.1,2.8
			c-0.2,1.2-1.2,2.4-2.6,2.6c-1.5,0.2-2.8-0.3-3.5-1.6C52-8.6,52-9.2,52-9.8c0-3.5,0-6.9,0.2-10.4c0-0.7-0.3-1-0.9-1.3
			c-3-1.2-6.1-2.3-8.9-3.8c-1.9-1-3-2.8-3.3-4.9c-0.3-1.5,0.1-3,0.7-4.4c1.2-3,2.3-6,3.4-9c0.2-0.7,0.2-0.7-0.5-0.7
			c-1.2,0-2.5,0-3.7-0.1c-0.5,0-0.8,0.1-1,0.5c-1.4,1.8-2.7,3.6-4.1,5.4c-0.2,0.3-0.4,0.6-0.6,0.8c-0.9,1.1-2.6,0.9-3.3,0.3
			c-1.1-0.9-1.3-2.3-0.5-3.4c1.9-2.3,3.8-4.6,5.8-6.9c0.8-0.9,1.8-1.3,3-1.3C39.8-49.3,41.3-49.3,43.4-49.3L43.4-49.3z"/>
		<path d="M24.7-15.6c-1.9,0-3.4-1.3-3.5-3.1c-0.1-1.9,1.1-3.4,3-3.6c1.6-0.1,3.1-0.2,4.7-0.3c1.4-0.1,2.9-0.2,4.3-0.2
			c0.5,0,0.8-0.2,1-0.6c0.8-1.4,1.6-2.8,2.4-4.2c0.1-0.1,0.1-0.4,0.3-0.4c0.2,0,0.3,0.2,0.3,0.4c0.9,1.9,2.3,3.3,4.2,4.2
			c0.4,0.2,0.6,0.5,0.3,1c-1.2,1.6-2.3,3.3-3.6,4.8c-0.7,0.8-1.7,1.2-2.8,1.3c-2.8,0.1-5.6,0.3-8.5,0.4
			C26.1-15.6,25.4-15.6,24.7-15.6L24.7-15.6z"/>
		<path d="M48.5-55.8c0-3.3,2.5-5.9,5.7-5.9c3.4,0,5.8,2.5,5.9,5.9c0.1,3.2-2.6,5.8-5.8,5.8C51.1-49.9,48.6-52.4,48.5-55.8
			L48.5-55.8z"/>
		<path d="M60.6-32.4c-1.2,0-2-0.3-2.8-0.8c-0.8-0.6-1.6-1.2-2.4-1.8c-0.4-0.3-0.6-0.6-0.4-1.1c0.5-1.4,1-2.9,1.6-4.3
			c0.3-0.7,0.3-0.7,0.9-0.2c1,0.8,1.9,1.7,2.9,2.6c0.3,0.3,0.6,0.4,1.1,0.2c2.1-0.7,4.2-1.4,6.3-2.2c1.4-0.5,2.5-0.2,3.2,0.7
			c0.9,1.2,0.7,3.3-1.2,4c-2.5,0.8-5,1.7-7.5,2.6C61.6-32.6,61-32.4,60.6-32.4L60.6-32.4z"/>
	</g>
	<g id="Light-S" transform="matrix(1 0 0 1 1107.6 696)">
		<path d="M45.1-90.4c3.9,0,7.7,0,11.6,0c2.3,0,3.4,1.1,3.5,3.4c0,1.9,0,3.7,0,5.6c0,1.9-1.2,3-3.1,3.1c-1.6,0-3.1,0-4.7,0
			c-0.8,0-1.2,0.2-1.2,1.1c0.1,1.4,0,2.8,0,4.3c0,0.8,0.3,1.1,1.1,1.2c6.2,1.1,11.8,3.6,16.7,7.5c0.7,0.5,1.1,0.5,1.6-0.1
			c0.9-1,1.9-2,2.9-2.9c1.4-1.3,3-1.3,4.4,0c1.4,1.3,2.7,2.7,4.1,4c1.4,1.5,1.4,3.1-0.1,4.6c-1,1.1-2.1,2.2-3.2,3.2
			c-0.7,0.6-0.7,1.1-0.2,1.9c11.3,18.8,5.2,42.9-13.8,54c-24,14-55-1.4-58.3-29c-1.1-8.9,0.7-17.2,5.3-24.9c0.6-0.9,0.5-1.4-0.3-2.1
			c-1.1-1-2.2-2.1-3.2-3.2c-1.3-1.4-1.3-3,0-4.4c1.3-1.4,2.7-2.8,4.1-4.1c1.4-1.3,3-1.3,4.4,0c1,1,2,2,3,3c0.4,0.5,0.7,0.6,1.3,0.2
			c5.1-3.9,10.8-6.5,17.1-7.6c0.6-0.1,0.8-0.4,0.8-1c0-1.6,0-3.1,0-4.7c0-0.7-0.3-0.9-0.9-0.9c-1.6,0-3.2,0-4.8,0
			c-2,0-3.1-1.2-3.2-3.2c0-1.9,0-3.8,0-5.7c0-2,1.2-3.2,3.3-3.2C37.3-90.4,41.2-90.4,45.1-90.4L45.1-90.4z M78-33.4
			C78-51.5,63.2-66.3,45-66.3c-18.1,0-33,15-32.8,33C12.3-13.8,28.6-0.1,46-0.4C63.3-0.8,78.1-15.6,78-33.4L78-33.4z"/>
		<path d="M42.3-49.3c1.3,0,3.3-0.1,5.2,0.1c1.4,0.2,2.8,0.5,4,1.4c2.1,1.6,2.8,4.1,1.9,6.5c-1.2,3.4-2.5,6.9-3.8,10.3
			c-0.3,0.9-0.3,0.9,0.5,1.4c1.7,1.1,3.4,2.2,5.1,3.3c1.8,1.1,2.5,2.8,2.3,4.8c-0.2,3.2,0,6.4-0.1,9.5c0,0.9,0.1,1.9-0.1,2.8
			c-0.2,1.2-1.2,2.4-2.6,2.6c-1.5,0.2-2.8-0.3-3.5-1.6c-0.3-0.6-0.4-1.2-0.4-1.8c0-3.5,0-6.9,0.2-10.4c0-0.7-0.3-1-0.9-1.3
			c-3-1.2-6.1-2.3-8.9-3.8c-1.9-1-3-2.8-3.3-4.9c-0.3-1.5,0.1-3,0.7-4.4c1.2-3,2.3-6,3.4-9c0.2-0.7,0.2-0.7-0.5-0.7
			c-1.2,0-2.5,0-3.7-0.1c-0.5,0-0.8,0.1-1,0.5c-1.4,1.8-2.7,3.6-4.1,5.4c-0.2,0.3-0.4,0.6-0.6,0.8c-0.9,1.1-2.6,0.9-3.3,0.3
			c-1.1-0.9-1.3-2.3-0.5-3.4c1.9-2.3,3.8-4.6,5.8-6.9c0.8-0.9,1.8-1.3,3-1.3C38.6-49.3,40.1-49.3,42.3-49.3L42.3-49.3z"/>
		<path d="M23.6-15.6c-1.9,0-3.4-1.3-3.5-3.1c-0.1-1.9,1.1-3.4,3-3.6c1.6-0.1,3.1-0.2,4.7-0.3c1.4-0.1,2.9-0.2,4.3-0.2
			c0.5,0,0.8-0.2,1-0.6c0.8-1.4,1.6-2.8,2.4-4.2c0.1-0.1,0.1-0.4,0.3-0.4c0.2,0,0.3,0.2,0.3,0.4c0.9,1.9,2.3,3.3,4.2,4.2
			c0.4,0.2,0.6,0.5,0.3,1c-1.2,1.6-2.3,3.3-3.6,4.8c-0.7,0.8-1.7,1.2-2.8,1.3c-2.8,0.1-5.6,0.3-8.5,0.4C25-15.6,24.2-15.6,23.6-15.6
			L23.6-15.6z"/>
		<path d="M47.4-55.8c0-3.3,2.5-5.9,5.7-5.9c3.4,0,5.8,2.5,5.9,5.9c0.1,3.2-2.6,5.8-5.8,5.8C49.9-49.9,47.4-52.4,47.4-55.8
			L47.4-55.8z"/>
		<path d="M59.4-32.4c-1.2,0-2-0.3-2.8-0.8c-0.8-0.6-1.6-1.2-2.4-1.8c-0.4-0.3-0.6-0.6-0.4-1.1c0.5-1.4,1-2.9,1.6-4.3
			c0.3-0.7,0.3-0.7,0.9-0.2c1,0.8,1.9,1.7,2.9,2.6c0.3,0.3,0.6,0.4,1.1,0.2c2.1-0.7,4.2-1.4,6.3-2.2c1.4-0.5,2.5-0.2,3.2,0.7
			c0.9,1.2,0.7,3.3-1.2,4c-2.5,0.8-5,1.7-7.5,2.6C60.5-32.6,59.8-32.4,59.4-32.4L59.4-32.4z"/>
	</g>
	<g id="Thin-S" transform="matrix(1 0 0 1 811.863 696)">
		<path d="M44.5-93.9c3.9,0,7.7,0,11.6,0c2.3,0,3.4,1.1,3.5,3.4c0,1.9,0,3.7,0,5.6c0,1.9-1.2,3-3.1,3.1c-1.6,0-3.1,0-4.7,0
			c-0.8,0-1.2,0.2-1.2,1.1c0.1,1.4,0,2.8,0,4.3c0,0.8,0.3,1.1,1.1,1.2c6.2,1.1,11.8,3.6,16.7,7.5c0.7,0.5,1.1,0.5,1.6-0.1
			c0.9-1,1.9-2,2.9-2.9c1.4-1.3,3-1.3,4.4,0c1.4,1.3,2.7,2.7,4.1,4c1.4,1.5,1.4,3.1-0.1,4.6c-1,1.1-2.1,2.2-3.2,3.2
			c-0.7,0.6-0.7,1.1-0.2,1.9c11.3,18.8,5.2,42.9-13.8,54c-24,14-55-1.4-58.3-29C4.7-41,6.5-49.3,11.1-57c0.6-0.9,0.5-1.4-0.3-2.1
			c-1.1-1-2.2-2.1-3.2-3.2c-1.3-1.4-1.3-3,0-4.4c1.3-1.4,2.7-2.8,4.1-4.1c1.4-1.3,3-1.3,4.4,0c1,1,2,2,3,3c0.4,0.5,0.7,0.6,1.3,0.2
			c5.1-3.9,10.8-6.5,17.1-7.6c0.6-0.1,0.8-0.4,0.8-1c0-1.6,0-3.1,0-4.7c0-0.7-0.3-0.9-0.9-0.9c-1.6,0-3.2,0-4.8,0
			c-2,0-3.1-1.2-3.2-3.2c0-1.9,0-3.8,0-5.7c0-2,1.2-3.2,3.3-3.2C36.7-93.9,40.6-93.9,44.5-93.9L44.5-93.9z M77.5-36.9
			c0-18.2-14.9-32.9-33.1-32.9c-18.1,0-33,15-32.8,33C11.8-17.3,28-3.6,45.4-3.9C62.8-4.3,77.5-19.2,77.5-36.9L77.5-36.9z"/>
		<path d="M41.7-52.8c1.3,0,3.3-0.1,5.2,0.1c1.4,0.2,2.8,0.5,4,1.4c2.1,1.6,2.8,4.1,1.9,6.5c-1.2,3.4-2.5,6.9-3.8,10.3
			c-0.3,0.9-0.3,0.9,0.5,1.4c1.7,1.1,3.4,2.2,5.1,3.3c1.8,1.1,2.5,2.8,2.3,4.8c-0.2,3.2,0,6.4-0.1,9.5c0,0.9,0.1,1.9-0.1,2.8
			c-0.2,1.2-1.2,2.4-2.6,2.6c-1.5,0.2-2.8-0.3-3.5-1.6c-0.3-0.6-0.4-1.2-0.4-1.8c0-3.5,0-6.9,0.2-10.4c0-0.7-0.3-1-0.9-1.3
			c-3-1.2-6.1-2.3-8.9-3.8c-1.9-1-3-2.8-3.3-4.9c-0.3-1.5,0.1-3,0.7-4.4c1.2-3,2.3-6,3.4-9c0.2-0.7,0.2-0.7-0.5-0.7
			c-1.2,0-2.5,0-3.7-0.1c-0.5,0-0.8,0.1-1,0.5c-1.4,1.8-2.7,3.6-4.1,5.4c-0.2,0.3-0.4,0.6-0.6,0.8c-0.9,1.1-2.6,0.9-3.3,0.3
			c-1.1-0.9-1.3-2.3-0.5-3.4c1.9-2.3,3.8-4.6,5.8-6.9c0.8-0.9,1.8-1.3,3-1.3C38-52.8,39.5-52.8,41.7-52.8L41.7-52.8z"/>
		<path d="M23-19.1c-1.9,0-3.4-1.3-3.5-3.1c-0.1-1.9,1.1-3.4,3-3.6c1.6-0.1,3.1-0.2,4.7-0.3c1.4-0.1,2.9-0.2,4.3-0.2
			c0.5,0,0.8-0.2,1-0.6c0.8-1.4,1.6-2.8,2.4-4.2c0.1-0.1,0.1-0.4,0.3-0.4c0.2,0,0.3,0.2,0.3,0.4c0.9,1.9,2.3,3.3,4.2,4.2
			c0.4,0.2,0.6,0.5,0.3,1c-1.2,1.6-2.3,3.3-3.6,4.8c-0.7,0.8-1.7,1.2-2.8,1.3c-2.8,0.1-5.6,0.3-8.5,0.4C24.4-19.2,23.6-19.2,23-19.1
			L23-19.1z"/>
		<path d="M46.8-59.3c0-3.3,2.5-5.9,5.7-5.9c3.4,0,5.8,2.5,5.9,5.9c0.1,3.2-2.6,5.8-5.8,5.8C49.4-53.5,46.8-56,46.8-59.3L46.8-59.3z
			"/>
		<path d="M58.9-35.9c-1.2,0-2-0.3-2.8-0.8c-0.8-0.6-1.6-1.2-2.4-1.8c-0.4-0.3-0.6-0.6-0.4-1.1c0.5-1.4,1-2.9,1.6-4.3
			c0.3-0.7,0.3-0.7,0.9-0.2c1,0.8,1.9,1.7,2.9,2.6c0.3,0.3,0.6,0.4,1.1,0.2c2.1-0.7,4.2-1.4,6.3-2.2c1.4-0.5,2.5-0.2,3.2,0.7
			c0.9,1.2,0.7,3.3-1.2,4c-2.5,0.8-5,1.7-7.5,2.6C59.9-36.2,59.3-35.9,58.9-35.9L58.9-35.9z"/>
	</g>
	<g id="Ultralight-S" transform="matrix(1 0 0 1 515.649 696)">
		<path d="M43.1-87.8c3.6,0,7.2,0,10.8,0c2.2,0,3.2,1.1,3.2,3.2c0,1.7,0,3.5,0,5.2c0,1.7-1.2,2.8-2.9,2.9c-1.5,0-2.9,0-4.4,0
			c-0.8,0-1.1,0.2-1.1,1c0,1.3,0,2.7,0,4c0,0.7,0.3,1,1,1.1c5.8,1.1,11,3.4,15.7,7c0.6,0.5,1,0.4,1.5-0.1c0.9-1,1.8-1.9,2.7-2.7
			c1.3-1.2,2.8-1.2,4.1,0c1.3,1.2,2.6,2.5,3.8,3.8c1.3,1.4,1.3,2.9-0.1,4.3c-1,1-1.9,2.1-3,3c-0.7,0.6-0.6,1-0.2,1.8
			c10.6,17.6,4.8,40.1-12.9,50.5C39,10.3,9.9-4.1,6.9-29.9c-1-8.3,0.6-16.1,5-23.3c0.5-0.9,0.4-1.3-0.3-2c-1.1-0.9-2-2-3-3
			c-1.2-1.3-1.2-2.8,0-4.1c1.3-1.3,2.6-2.6,3.9-3.9c1.3-1.2,2.8-1.2,4.1,0c1,0.9,1.9,1.8,2.8,2.8c0.4,0.4,0.7,0.6,1.2,0.1
			c4.7-3.7,10.1-6.1,16-7.1c0.6-0.1,0.8-0.4,0.8-0.9c0-1.5,0-2.9,0-4.4c0-0.7-0.2-0.9-0.9-0.9c-1.5,0-3,0-4.5,0c-1.8,0-2.9-1.1-3-3
			c0-1.8,0-3.6,0-5.4c0-1.9,1.1-3,3.1-3C35.8-87.8,39.4-87.8,43.1-87.8L43.1-87.8z M73.9-34.4c0-17-13.9-30.8-30.9-30.8
			c-16.9,0-30.8,14-30.7,30.9C12.5-16.1,27.6-3.3,43.9-3.6C60.2-3.9,74-17.8,73.9-34.4L73.9-34.4z"/>
		<path d="M40.5-49.3c1.2,0,3-0.1,4.9,0.1c1.3,0.2,2.6,0.4,3.7,1.3c1.9,1.5,2.6,3.8,1.8,6.1c-1.1,3.2-2.3,6.4-3.5,9.7
			c-0.3,0.8-0.3,0.8,0.4,1.3c1.6,1,3.2,2.1,4.8,3c1.7,1,2.3,2.6,2.2,4.5c-0.2,3,0,6-0.1,8.9c0,0.9,0.1,1.8-0.1,2.6
			c-0.2,1.1-1.1,2.3-2.4,2.5c-1.4,0.2-2.6-0.3-3.3-1.5c-0.3-0.5-0.4-1.1-0.4-1.7c0-3.2,0-6.5,0.2-9.7c0-0.7-0.2-1-0.8-1.2
			c-2.8-1.1-5.7-2.2-8.4-3.6c-1.8-1-2.8-2.6-3.1-4.6c-0.2-1.4,0.1-2.8,0.7-4.1c1.1-2.8,2.1-5.6,3.2-8.5c0.2-0.6,0.2-0.7-0.4-0.7
			c-1.1,0-2.3,0-3.4-0.1c-0.4,0-0.7,0.1-1,0.5c-1.3,1.7-2.6,3.4-3.8,5c-0.2,0.2-0.3,0.5-0.5,0.8c-0.9,1.1-2.4,0.9-3.1,0.3
			c-1-0.8-1.3-2.2-0.4-3.2c1.8-2.2,3.6-4.3,5.4-6.5c0.7-0.9,1.7-1.2,2.8-1.3C37-49.3,38.5-49.3,40.5-49.3L40.5-49.3z"/>
		<path d="M23-17.8c-1.8,0-3.2-1.3-3.3-2.9c-0.1-1.8,1-3.2,2.8-3.3c1.5-0.1,2.9-0.2,4.4-0.2c1.3-0.1,2.7-0.2,4-0.2
			c0.5,0,0.7-0.2,0.9-0.6c0.7-1.3,1.5-2.6,2.2-3.9c0.1-0.1,0.1-0.3,0.3-0.3c0.2,0,0.2,0.2,0.3,0.4c0.8,1.8,2.2,3.1,4,4
			c0.4,0.2,0.6,0.5,0.3,0.9c-1.1,1.5-2.2,3.1-3.4,4.5c-0.7,0.8-1.6,1.2-2.6,1.2c-2.6,0.1-5.3,0.3-7.9,0.4
			C24.3-17.9,23.6-17.8,23-17.8L23-17.8z"/>
		<path d="M45.3-55.4c0-3,2.3-5.5,5.4-5.5c3.2,0,5.5,2.3,5.5,5.5c0,3-2.5,5.5-5.4,5.5C47.6-49.9,45.3-52.3,45.3-55.4L45.3-55.4z"/>
		<path d="M56.5-33.5c-1.2,0-1.9-0.3-2.6-0.8c-0.8-0.6-1.5-1.1-2.3-1.7c-0.4-0.3-0.5-0.6-0.3-1c0.5-1.3,1-2.7,1.5-4.1
			c0.2-0.6,0.3-0.6,0.8-0.2c1,0.7,1.8,1.6,2.7,2.4c0.3,0.3,0.6,0.3,1,0.2c2-0.7,4-1.4,5.9-2c1.3-0.4,2.4-0.2,3,0.6
			c0.9,1.1,0.6,3.1-1.1,3.7c-2.3,0.8-4.7,1.6-7,2.4C57.5-33.7,56.9-33.5,56.5-33.5L56.5-33.5z"/>
	</g>
</g>
</svg>
